<?xml version="1.0" standalone="no"?>
<!DOCTYPE svg PUBLIC "-//W3C//DTD SVG 1.1//EN" "http://www.w3.org/Graphics/SVG/1.1/DTD/svg11.dtd" >
<svg xmlns="http://www.w3.org/2000/svg" xmlns:xlink="http://www.w3.org/1999/xlink" version="1.1">
<metadata></metadata>
<defs>
<font id="uber_move_textregular" horiz-adv-x="1239" >
<font-face units-per-em="2048" ascent="1638" descent="-410" />
<missing-glyph horiz-adv-x="456" />
<glyph horiz-adv-x="0" />
<glyph unicode="&#xd;" horiz-adv-x="456" />
<glyph horiz-adv-x="456" />
<glyph horiz-adv-x="456" />
<glyph unicode=" "  horiz-adv-x="456" />
<glyph unicode="&#x09;" horiz-adv-x="456" />
<glyph unicode="&#xa0;" horiz-adv-x="456" />
<glyph unicode="!" horiz-adv-x="423" d="M109 86q0 44 30.5 75.5t73.5 31.5t73.5 -31.5t30.5 -75.5q0 -43 -30.5 -73.5t-73.5 -30.5t-73.5 30.5t-30.5 73.5zM131 1495h162l-12 -1114h-138z" />
<glyph unicode="&#x22;" horiz-adv-x="622" d="M104 1499h150l-12 -424h-127zM371 1499h149l-12 -424h-127z" />
<glyph unicode="#" horiz-adv-x="1316" d="M41 446v121h260l86 299h-244v121h279l127 447h147l-127 -447h336l127 447h146l-127 -447h223v-121h-258l-86 -299h241v-121h-276l-127 -446h-145l127 446h-336l-127 -446h-148l127 446h-225zM449 567h335l86 299h-335z" />
<glyph unicode="$" horiz-adv-x="1122" d="M80 449h156q19 -109 85.5 -180.5t172.5 -94.5v485l-78 23q-330 96 -330 354q0 160 115 260.5t293 108.5v156h129v-164q162 -28 266.5 -136t124.5 -272h-156q-17 107 -77.5 176.5t-157.5 94.5v-478l77 -22q169 -50 252.5 -136.5t83.5 -217.5q0 -162 -112 -265t-301 -110 v-162h-129v170q-172 27 -283.5 135.5t-130.5 274.5zM242 1049q0 -84 54.5 -138t168.5 -88l29 -8v457q-111 -8 -181.5 -69t-70.5 -154zM623 164q122 7 190 68t68 157q0 85 -58 141.5t-180 90.5l-20 6v-463z" />
<glyph unicode="%" horiz-adv-x="1753" d="M88 1110q0 140 101.5 242t250.5 102q144 0 244 -102t100 -242q0 -149 -100.5 -251.5t-243.5 -102.5q-148 0 -250 102.5t-102 251.5zM211 1110q0 -98 66 -169t163 -71q91 0 157.5 71.5t66.5 168.5q0 93 -67 161t-157 68q-95 0 -162 -67.5t-67 -161.5zM418 0l784 1434h133 l-784 -1434h-133zM969 324q0 149 100.5 251.5t245.5 102.5q148 0 249 -102.5t101 -251.5q0 -140 -101.5 -242t-248.5 -102q-145 0 -245.5 102t-100.5 242zM1090 324q0 -93 67 -160.5t158 -67.5q94 0 161.5 67t67.5 161q0 98 -66.5 168.5t-162.5 70.5q-92 0 -158.5 -71 t-66.5 -168z" />
<glyph unicode="&#x26;" horiz-adv-x="1353" d="M78 362q0 123 60.5 211t195.5 164l72 41l-15 15q-82 92 -116.5 165.5t-34.5 155.5q0 146 98 240t252 94t253 -90t99 -230q0 -105 -54.5 -183t-174.5 -148l-78 -45l301 -336l6 10l223 356l125 -71l-227 -357q-18 -29 -31 -47l86 -96q60 -68 131 -68h64v-143h-88 q-72 0 -119.5 22t-101.5 82l-68 76q-93 -108 -190.5 -154t-227.5 -46q-189 0 -314.5 109t-125.5 273zM240 369q0 -106 81.5 -178t202.5 -72q98 0 171.5 38t146.5 128l-344 387l-95 -56q-163 -94 -163 -247zM397 1118q0 -53 27 -105.5t88 -121.5l31 -35l92 51q151 84 151 213 q0 82 -55.5 137.5t-138.5 55.5q-87 0 -141 -54t-54 -141z" />
<glyph unicode="'" horiz-adv-x="358" d="M104 1499h150l-12 -424h-127z" />
<glyph unicode="(" horiz-adv-x="753" d="M104 680q0 322 134 570.5t380 394.5l78 -115q-212 -127 -326 -346t-114 -504q0 -283 115 -502t327 -346l-80 -115q-247 146 -380.5 394t-133.5 569z" />
<glyph unicode=")" horiz-adv-x="753" d="M57 1530l80 115q247 -146 380.5 -394t133.5 -569q0 -322 -134 -570.5t-380 -394.5l-78 115q212 127 326.5 346.5t114.5 503.5q0 283 -115.5 502t-327.5 346z" />
<glyph unicode="*" horiz-adv-x="858" d="M82 915l246 148l-246 149l59 95l238 -148l-2 275h108l-2 -275l236 148l59 -95l-246 -149l246 -148l-59 -94l-236 146l2 -273h-108l2 275l-238 -148z" />
<glyph unicode="+" horiz-adv-x="1126" d="M135 668v131h363v364h133v-364h360v-131h-360v-373h-133v373h-363z" />
<glyph unicode="," horiz-adv-x="448" d="M90 -223q56 10 97.5 60.5t41.5 99.5q0 19 -17.5 35.5t-38.5 27.5t-38.5 34.5t-17.5 55.5q0 41 29.5 69.5t68.5 28.5q56 0 89.5 -43.5t33.5 -121.5q0 -129 -66 -220.5t-182 -111.5v86z" />
<glyph unicode="-" horiz-adv-x="933" d="M135 541v141h664v-141h-664z" />
<glyph unicode="." horiz-adv-x="434" d="M113 86q0 44 30.5 75.5t73.5 31.5t74 -31.5t31 -75.5q0 -43 -31 -73.5t-74 -30.5t-73.5 30.5t-30.5 73.5z" />
<glyph unicode="/" horiz-adv-x="841" d="M29 0l622 1434h162l-623 -1434h-161z" />
<glyph unicode="0" horiz-adv-x="1282" d="M133 535v366q0 253 139 404t369 151q228 0 367 -151.5t139 -403.5v-366q0 -251 -139 -403t-367 -152q-229 0 -368.5 151.5t-139.5 403.5zM291 545q0 -198 94 -312t256 -114q159 0 253.5 114.5t94.5 311.5v348q0 196 -94.5 310t-253.5 114q-161 0 -255.5 -114t-94.5 -310 v-348z" />
<glyph unicode="1" horiz-adv-x="921" d="M100 0v139h285v1155h-268v140h426v-1295h284v-139h-727z" />
<glyph unicode="2" horiz-adv-x="1064" d="M68 1178q61 129 176.5 201.5t267.5 72.5q194 0 319 -115.5t125 -289.5q1 -121 -50 -219t-167 -224l-428 -467l660 2v-139h-877v104l524 574q97 105 139.5 183.5t41.5 176.5q0 121 -83 199t-208 78q-103 0 -184 -54t-129 -149z" />
<glyph unicode="3" horiz-adv-x="1118" d="M61 260l129 70q48 -99 140 -156t209 -57q134 0 219.5 78.5t85.5 201.5q0 118 -78 194.5t-197 76.5h-174v137h156q107 0 177.5 71t70.5 177q0 116 -80.5 190t-204.5 74q-104 0 -184.5 -53t-124.5 -144l-131 64q58 126 174.5 198t273.5 72q185 0 308.5 -111t123.5 -276 q0 -110 -60.5 -195t-162.5 -122q121 -37 194.5 -135t73.5 -226q0 -175 -128.5 -292t-329.5 -117q-167 0 -294 75.5t-186 204.5z" />
<glyph unicode="4" horiz-adv-x="1196" d="M63 377v119l664 938h203v-920h192v-137h-192v-377h-158v377h-709zM242 514h530v758z" />
<glyph unicode="5" horiz-adv-x="1140" d="M84 260l131 72q47 -102 135.5 -158.5t200.5 -56.5q138 0 229.5 93.5t91.5 233.5t-90 230t-229 90q-164 0 -279 -109l-129 19l35 760h758v-140h-623l-20 -503q112 106 283 106q197 0 323.5 -126t126.5 -322q0 -201 -135 -335t-336 -134q-161 0 -286.5 74t-186.5 206z" />
<glyph unicode="6" horiz-adv-x="1220" d="M127 643v119q0 321 138 506.5t374 185.5q143 0 254.5 -71t175.5 -197l-129 -68q-44 92 -124.5 146.5t-174.5 54.5q-167 0 -264.5 -149t-97.5 -431v-118q36 139 140 218t240 79q191 0 319 -130t128 -323q0 -211 -132 -348t-331 -137q-234 0 -375 180.5t-141 482.5z M315 451q0 -142 91.5 -237t228.5 -95q138 0 228.5 94t90.5 238q0 145 -90.5 239t-228.5 94t-229 -94.5t-91 -238.5z" />
<glyph unicode="7" horiz-adv-x="1077" d="M61 1294v140h957v-117l-678 -1317h-180l682 1294h-781z" />
<glyph unicode="8" horiz-adv-x="1183" d="M121 385q0 130 78 226t209 132q-110 39 -175 125.5t-65 200.5q0 166 119.5 275.5t304.5 109.5q187 0 306.5 -109t119.5 -276q0 -114 -65 -200.5t-177 -125.5q132 -36 210.5 -131.5t78.5 -226.5q0 -178 -133.5 -291.5t-339.5 -113.5t-338.5 113.5t-132.5 291.5zM276 391 q0 -124 88.5 -201t227.5 -77t227 77t88 201t-88.5 202.5t-226.5 78.5t-227 -78.5t-89 -202.5zM322 1061q0 -114 75.5 -185t194.5 -71t194.5 71t75.5 185q0 117 -75 188.5t-195 71.5q-119 0 -194.5 -72t-75.5 -188z" />
<glyph unicode="9" horiz-adv-x="1220" d="M115 969q0 211 132 348t331 137q234 0 375 -180.5t141 -482.5v-119q0 -321 -138 -506.5t-374 -185.5q-143 0 -254.5 71t-175.5 197l129 67q44 -92 124.5 -146t174.5 -54q167 0 264.5 148.5t97.5 430.5v119q-36 -139 -140.5 -218t-240.5 -79q-191 0 -318.5 130t-127.5 323 zM266 983q0 -145 91 -239.5t229 -94.5t228.5 94.5t90.5 239.5q0 142 -91 237t-228 95q-138 0 -229 -94t-91 -238z" />
<glyph unicode=":" horiz-adv-x="434" d="M113 86q0 44 30.5 75.5t73.5 31.5t74 -31.5t31 -75.5q0 -43 -31 -73.5t-74 -30.5t-73.5 30.5t-30.5 73.5zM113 952q0 44 30.5 75.5t73.5 31.5t74 -31.5t31 -75.5q0 -43 -31 -73.5t-74 -30.5t-73.5 30.5t-30.5 73.5z" />
<glyph unicode=";" horiz-adv-x="448" d="M90 -223q56 10 97.5 60.5t41.5 99.5q0 19 -17.5 35.5t-38.5 27.5t-38.5 34.5t-17.5 55.5q0 41 29.5 69.5t68.5 28.5q56 0 89.5 -43.5t33.5 -121.5q0 -129 -66 -220.5t-182 -111.5v86zM117 952q0 44 30.5 75.5t73.5 31.5t74 -31.5t31 -75.5q0 -43 -31 -73.5t-74 -30.5 t-73.5 30.5t-30.5 73.5z" />
<glyph unicode="&#x3c;" horiz-adv-x="790" d="M43 541l504 538h180l-491 -536l499 -543h-188z" />
<glyph unicode="=" horiz-adv-x="1124" d="M135 506v121h854v-121h-854zM135 831v121h854v-121h-854z" />
<glyph unicode="&#x3e;" horiz-adv-x="790" d="M43 1079h188l504 -540l-504 -539h-180l492 537z" />
<glyph unicode="?" horiz-adv-x="1030" d="M37 1243q77 104 190 162.5t248 58.5q201 0 332 -121.5t131 -298.5q0 -165 -105.5 -281.5t-273.5 -131.5l-6 -240h-133l-6 367h80q127 0 206.5 80.5t79.5 199.5q0 122 -86.5 203.5t-222.5 81.5q-94 0 -176.5 -43.5t-140.5 -120.5zM377 86q0 44 30.5 75.5t73.5 31.5 t74 -31.5t31 -75.5q0 -43 -31 -73.5t-74 -30.5t-73.5 30.5t-30.5 73.5z" />
<glyph unicode="@" horiz-adv-x="1714" d="M117 510q0 152 58.5 289t157.5 236t236 157.5t289 58.5q210 0 379 -90.5t264.5 -250.5t95.5 -359q0 -176 -86.5 -281.5t-207.5 -105.5q-151 0 -207 112q-46 -62 -116.5 -97.5t-152.5 -35.5q-149 0 -252.5 104.5t-103.5 252.5t103.5 251t252.5 103q140 0 240 -100v86h129 v-455q0 -49 31 -82t86 -33q75 0 123.5 78.5t48.5 198.5q0 174 -81 311.5t-225 214t-325 76.5q-172 0 -316.5 -85t-227.5 -232t-83 -322q0 -174 83 -320t226.5 -230.5t313.5 -84.5q252 0 430 148l74 -78q-210 -172 -500 -172q-151 0 -287.5 58t-235 156.5t-156.5 235 t-58 287.5zM602 500q0 -100 68.5 -170t165.5 -70q96 0 164.5 70.5t68.5 169.5q0 98 -68 167.5t-165 69.5t-165.5 -69.5t-68.5 -167.5z" />
<glyph unicode="A" horiz-adv-x="1343" d="M12 0l568 1434h184l567 -1434h-178l-154 399h-661l-154 -399h-172zM393 545h551l-274 715z" />
<glyph unicode="B" horiz-adv-x="1306" d="M188 0v1434h498q174 0 292 -107.5t118 -263.5q0 -96 -57.5 -177t-153.5 -124q137 -34 222 -134t85 -229q0 -167 -122 -283t-304 -116h-578zM352 141h398q120 0 198 78.5t78 190.5t-78 189t-198 77h-398v-535zM352 813h326q108 0 180 70t72 168q0 102 -71.5 171.5 t-180.5 69.5h-326v-479z" />
<glyph unicode="C" horiz-adv-x="1417" d="M131 635v164q0 150 46.5 274.5t128.5 207.5t194 129t241 46q225 0 385 -136t199 -372h-160q-35 170 -150 264.5t-274 94.5q-196 0 -321 -136t-125 -376v-156q0 -240 126 -376t320 -136q159 0 274 94t150 264h160q-26 -157 -109 -272.5t-205.5 -175.5t-269.5 -60 q-129 0 -241 46t-194 129.5t-128.5 208t-46.5 274.5z" />
<glyph unicode="D" horiz-adv-x="1458" d="M188 0v1434h512q292 0 459.5 -172t167.5 -465v-162q0 -292 -167 -463.5t-460 -171.5h-512zM352 145h338q226 0 349.5 129.5t123.5 364.5v154q0 233 -124 364t-349 131h-338v-1143z" />
<glyph unicode="E" horiz-adv-x="1214" d="M188 0v1434h908v-146h-744v-497h723v-144h-723v-502h744v-145h-908z" />
<glyph unicode="F" horiz-adv-x="1214" d="M188 0v1434h908v-146h-744v-497h723v-144h-723v-647h-164z" />
<glyph unicode="G" horiz-adv-x="1503" d="M131 639v160q0 294 169.5 475.5t444.5 181.5q202 0 354.5 -102t221.5 -281l-145 -61q-53 138 -168 216.5t-258 78.5q-206 0 -330.5 -139t-124.5 -373v-156q0 -234 125.5 -374t329.5 -140q183 0 305.5 111t122.5 294v68h-426v143h579v-741h-153v244 q-65 -123 -185.5 -193.5t-261.5 -70.5q-268 0 -434 181.5t-166 477.5z" />
<glyph unicode="H" horiz-adv-x="1464" d="M188 0v1434h164v-643h760v643h164v-1434h-164v645h-760v-645h-164z" />
<glyph unicode="I" horiz-adv-x="542" d="M188 0v1434h164v-1434h-164z" />
<glyph unicode="J" horiz-adv-x="1028" d="M39 98l96 119q104 -90 252 -90q136 0 221.5 90.5t85.5 251.5v965h164v-975q0 -223 -131.5 -352.5t-335.5 -129.5q-213 0 -352 121z" />
<glyph unicode="K" horiz-adv-x="1247" d="M188 0v1434h164v-652l697 652h217l-766 -705l778 -729h-231l-695 662v-662h-164z" />
<glyph unicode="L" horiz-adv-x="1169" d="M188 0v1434h164v-1289h744v-145h-908z" />
<glyph unicode="M" horiz-adv-x="1822" d="M188 0v1434h256l469 -1223l469 1223h252v-1434h-159l2 1274l-492 -1274h-149l-492 1278l2 -1278h-158z" />
<glyph unicode="N" horiz-adv-x="1519" d="M188 0v1434h183l805 -1201l-2 1201h155v-1434h-178l-809 1202l2 -1202h-156z" />
<glyph unicode="O" horiz-adv-x="1515" d="M131 635v164q0 296 173.5 476.5t453.5 180.5q281 0 453.5 -180t172.5 -477v-164q0 -297 -172.5 -477.5t-453.5 -180.5q-280 0 -453.5 181t-173.5 477zM295 645q0 -243 127 -380.5t336 -137.5q210 0 336.5 137t126.5 381v143q0 244 -126.5 381.5t-336.5 137.5 t-336.5 -137.5t-126.5 -381.5v-143z" />
<glyph unicode="P" horiz-adv-x="1241" d="M188 0v1434h543q185 0 309.5 -123.5t124.5 -302.5q0 -176 -124.5 -298t-309.5 -122h-379v-588h-164zM352 729h371q120 0 198 80.5t78 198.5t-78 199t-198 81h-371v-559z" />
<glyph unicode="Q" horiz-adv-x="1515" d="M131 635v164q0 296 173.5 476.5t453.5 180.5q281 0 453.5 -180t172.5 -477v-164q0 -303 -182 -488l123 -149l-119 -98l-127 155q-141 -78 -321 -78q-280 0 -453.5 181t-173.5 477zM295 645q0 -243 127 -380.5t336 -137.5q127 0 221 49l-184 225l120 99l187 -228 q119 138 119 373v143q0 244 -126.5 381.5t-336.5 137.5t-336.5 -137.5t-126.5 -381.5v-143z" />
<glyph unicode="R" horiz-adv-x="1269" d="M188 0v1434h539q182 0 304 -120.5t122 -293.5q0 -140 -86 -248t-223 -143l383 -629h-187l-368 614h-320v-614h-164zM352 754h361q120 0 198 76t78 190t-78 191t-198 77h-361v-534z" />
<glyph unicode="S" horiz-adv-x="1236" d="M98 430h162q23 -145 124 -226t259 -81q146 0 230.5 66.5t84.5 177.5q0 92 -62 153t-194 96l-247 66q-167 44 -254.5 140.5t-87.5 234.5q0 177 129.5 287t330.5 110q210 0 351 -122t166 -324h-162q-23 146 -116 226.5t-243 80.5q-128 0 -211.5 -68t-83.5 -176 q0 -175 234 -237l256 -70q182 -49 270 -142.5t88 -236.5q0 -180 -131 -291.5t-346 -111.5q-226 0 -376.5 123t-170.5 325z" />
<glyph unicode="T" horiz-adv-x="1271" d="M53 1288v146h1166v-146h-502v-1288h-164v1288h-500z" />
<glyph unicode="U" horiz-adv-x="1452" d="M168 528v906h164v-893q0 -186 108.5 -300t274.5 -114q164 0 274.5 115t110.5 299v893h164v-1434h-164v219q-62 -107 -169.5 -173t-242.5 -66q-145 0 -263 67t-187.5 193t-69.5 288z" />
<glyph unicode="V" horiz-adv-x="1343" d="M12 1434h178l486 -1256l483 1256h172l-567 -1434h-184z" />
<glyph unicode="W" horiz-adv-x="1935" d="M59 1434h170l293 -1186l377 1186h143l379 -1186l293 1186h162l-375 -1434h-155l-377 1186l-379 -1186h-156z" />
<glyph unicode="X" horiz-adv-x="1222" d="M0 0l518 745l-481 689h192l381 -560l385 560h187l-482 -689l523 -745h-193l-422 618l-420 -618h-188z" />
<glyph unicode="Y" horiz-adv-x="1265" d="M2 1434h193l442 -682l438 682h189l-549 -842v-592h-164v598z" />
<glyph unicode="Z" horiz-adv-x="1142" d="M72 0v111l778 1177h-760v146h967v-113l-778 -1176h782v-145h-989z" />
<glyph unicode="[" horiz-adv-x="679" d="M100 -256v1874h518v-127h-372v-1620h372v-127h-518z" />
<glyph unicode="\" horiz-adv-x="841" d="M27 1434h161l623 -1434h-162z" />
<glyph unicode="]" horiz-adv-x="679" d="M59 -129h373v1620h-373v127h519v-1874h-519v127z" />
<glyph unicode="^" horiz-adv-x="1058" d="M76 717l383 717h141l383 -717h-147l-306 575l-305 -575h-149z" />
<glyph unicode="_" horiz-adv-x="989" d="M-6 -164h1001v-121h-1001v121z" />
<glyph unicode="`" horiz-adv-x="1024" d="M297 1470h188l234 -266h-160z" />
<glyph unicode="a" horiz-adv-x="1114" d="M86 297q0 143 89 223.5t245 89.5l342 19v100q0 106 -59.5 165.5t-167.5 59.5q-165 0 -289 -118l-82 112q171 148 387 148q169 0 268 -94t99 -252v-547q0 -30 18 -47t51 -17h53v-139h-88q-81 0 -130.5 43.5t-55.5 116.5q-48 -83 -132.5 -130.5t-189.5 -47.5 q-156 0 -257 88.5t-101 226.5zM240 303q0 -85 63.5 -138.5t163.5 -53.5q123 0 209 76.5t86 183.5v129l-324 -17q-93 -5 -145.5 -51.5t-52.5 -128.5z" />
<glyph unicode="b" horiz-adv-x="1241" d="M180 0v1501h158v-606q53 96 144 149.5t206 53.5q188 0 308 -132t120 -345v-162q0 -213 -121 -346t-307 -133q-117 0 -207.5 55.5t-142.5 154.5v-190h-158zM338 473q0 -160 84.5 -257t226.5 -97t227 97t85 257v133q0 159 -85 255.5t-227 96.5t-226.5 -96.5t-84.5 -255.5 v-133z" />
<glyph unicode="c" horiz-adv-x="1105" d="M123 461v155q0 216 128 349t327 133q168 0 285.5 -97.5t152.5 -265.5h-158q-29 105 -102.5 164t-177.5 59q-135 0 -217 -97t-82 -255v-133q0 -160 82 -257t217 -97q104 0 177.5 59t102.5 164h158q-35 -166 -153.5 -264t-284.5 -98q-199 0 -327 133t-128 348z" />
<glyph unicode="d" horiz-adv-x="1241" d="M123 459v162q0 213 120 345t308 132q116 0 207.5 -54.5t144.5 -152.5v610h158v-1501h-158v193q-53 -101 -144 -157t-208 -56q-186 0 -307 133t-121 346zM279 473q0 -160 85 -257t226 -97q142 0 227.5 97t85.5 257v133q0 159 -85.5 255.5t-227.5 96.5q-141 0 -226 -96.5 t-85 -255.5v-133z" />
<glyph unicode="e" horiz-adv-x="1120" d="M123 463v153q0 211 129 346.5t328 135.5q185 0 306.5 -133.5t121.5 -339.5v-133h-729v-27q0 -154 87 -250t224 -96q175 0 287 147l110 -92q-152 -192 -401 -192q-201 0 -332 135t-131 346zM279 621h575v8q0 147 -79 239.5t-200 92.5q-130 0 -213 -95t-83 -245z" />
<glyph unicode="f" horiz-adv-x="790" d="M66 940v139h221v226q0 101 60.5 162t166.5 61h211v-139h-188q-45 0 -70 -28t-25 -79v-203h283v-139h-283v-940h-155v940h-221z" />
<glyph unicode="g" horiz-adv-x="1232" d="M123 463v155q0 214 119.5 347t306.5 133q114 0 204.5 -54t143.5 -151v186h158v-1153q0 -170 -98.5 -268t-270.5 -98h-285v137h250q121 0 183.5 62.5t62.5 183.5v247q-53 -97 -143 -150.5t-205 -53.5q-186 0 -306 132.5t-120 344.5zM279 473q0 -160 85 -254t226 -94 q140 0 223.5 93.5t83.5 254.5v133q0 160 -84 256t-223 96q-140 0 -225.5 -96.5t-85.5 -255.5v-133z" />
<glyph unicode="h" d="M180 0v1501h158v-624q43 103 135 163t207 60q168 0 273.5 -113t105.5 -282v-705h-158v674q0 123 -74.5 202.5t-195.5 79.5q-128 0 -210.5 -83.5t-82.5 -210.5v-662h-158z" />
<glyph unicode="i" horiz-adv-x="518" d="M154 1395q0 44 31.5 75t74.5 31q42 0 72 -31t30 -75q0 -42 -30.5 -73.5t-71.5 -31.5q-42 0 -74 32t-32 73zM180 0v1079h158v-1079h-158z" />
<glyph unicode="j" horiz-adv-x="518" d="M20 -303h70q43 0 66.5 21t23.5 61v1300h158v-1323q0 -88 -57.5 -142t-155.5 -54h-105v137zM154 1395q0 44 31.5 75t74.5 31q42 0 72 -31t30 -75q0 -42 -30.5 -73.5t-71.5 -31.5q-42 0 -74 32t-32 73z" />
<glyph unicode="k" horiz-adv-x="1034" d="M180 0v1501h158v-901l496 479h202l-549 -518l576 -561h-215l-510 508v-508h-158z" />
<glyph unicode="l" horiz-adv-x="518" d="M180 0v1501h158v-1501h-158z" />
<glyph unicode="m" horiz-adv-x="1904" d="M180 0v1079h158v-202q41 103 128 163t196 60q127 0 219.5 -74t126.5 -195q36 121 129.5 195t218.5 74q162 0 265 -115.5t103 -286.5v-698h-157v668q0 126 -71.5 207t-186.5 81q-122 0 -200.5 -86t-78.5 -217v-653h-158v668q0 126 -71 207t-187 81q-121 0 -198.5 -86 t-77.5 -217v-653h-158z" />
<glyph unicode="n" d="M180 0v1079h158v-202q43 103 135 163t207 60q168 0 273.5 -113t105.5 -282v-705h-158v674q0 123 -74.5 202.5t-195.5 79.5q-128 0 -210.5 -83.5t-82.5 -210.5v-662h-158z" />
<glyph unicode="o" horiz-adv-x="1175" d="M123 461v155q0 216 130.5 349t334.5 133q202 0 333.5 -133t131.5 -349v-155q0 -215 -131.5 -348t-333.5 -133q-203 0 -334 133t-131 348zM279 473q0 -160 84 -257t225 -97q139 0 224 97t85 257v133q0 158 -85 255t-224 97q-141 0 -225 -96.5t-84 -255.5v-133z" />
<glyph unicode="p" d="M180 -440v1519h158v-184q53 96 144 149.5t206 53.5q188 0 308 -132t120 -345v-162q0 -213 -121 -346t-307 -133q-117 0 -207.5 55.5t-142.5 154.5v-630h-158zM338 473q0 -160 84.5 -257t226.5 -97t227 97t85 257v133q0 159 -85 255.5t-227 96.5t-226.5 -96.5 t-84.5 -255.5v-133z" />
<glyph unicode="q" horiz-adv-x="1241" d="M123 459v162q0 213 120 345t308 132q116 0 207.5 -54.5t144.5 -152.5v188h158v-1519h-158v633q-53 -101 -144 -157t-208 -56q-186 0 -307 133t-121 346zM279 473q0 -160 85 -257t226 -97q142 0 227.5 97t85.5 257v133q0 159 -85.5 255.5t-227.5 96.5q-141 0 -226 -96.5 t-85 -255.5v-133z" />
<glyph unicode="r" horiz-adv-x="768" d="M180 0v1079h156v-217q33 103 107 164t173 61h91v-153h-103q-113 0 -189.5 -83.5t-76.5 -209.5v-641h-158z" />
<glyph unicode="s" horiz-adv-x="999" d="M80 328h153q18 -95 96.5 -156t196.5 -61q99 0 160.5 47t61.5 118q0 122 -185 175l-182 47q-138 36 -210.5 109t-72.5 181q0 138 100.5 224t262.5 86q165 0 284.5 -95.5t141.5 -248.5h-156q-15 92 -91.5 153.5t-178.5 61.5q-95 0 -151 -45.5t-56 -116.5q0 -120 174 -168 l178 -47q143 -37 220 -115t77 -186q0 -139 -105 -225t-272 -86q-178 0 -299.5 97t-146.5 251z" />
<glyph unicode="t" horiz-adv-x="796" d="M63 940v139h222v324h155v-324h289v-139h-289v-702q0 -47 28.5 -73t80.5 -26h180v-139h-211q-109 0 -171 59t-62 156v725h-222z" />
<glyph unicode="u" d="M180 373v706h158v-676q0 -121 75 -200.5t195 -79.5q128 0 210.5 83.5t82.5 211.5v661h158v-1079h-158v203q-43 -104 -134 -163.5t-206 -59.5q-169 0 -275 112.5t-106 280.5z" />
<glyph unicode="v" horiz-adv-x="1028" d="M10 1079h166l342 -870l340 870h162l-436 -1079h-140z" />
<glyph unicode="w" horiz-adv-x="1519" d="M41 1079h162l225 -837l266 837h133l267 -833l225 833h158l-303 -1079h-142l-272 846l-275 -846h-141z" />
<glyph unicode="x" horiz-adv-x="974" d="M2 0l397 555l-372 524h178l282 -403l285 403h176l-377 -522l402 -557h-180l-308 436l-307 -436h-176z" />
<glyph unicode="y" horiz-adv-x="1036" d="M10 1079h166l350 -862l336 862h164l-522 -1312q-40 -105 -102 -156t-162 -51h-140v137h115q105 0 150 115l79 202z" />
<glyph unicode="z" horiz-adv-x="968" d="M80 0v115l600 825h-592v139h780v-116l-596 -824h611v-139h-803z" />
<glyph unicode="{" horiz-adv-x="817" d="M55 618v127h183q104 0 147.5 73t-2.5 173l-98 213q-53 125 -38.5 221.5t97.5 154.5t213 58q110 0 211 -45l-35 -116q-81 34 -168 34q-68 -1 -113.5 -32t-57 -88t23.5 -138l104 -233q52 -127 4.5 -218t-161.5 -120q114 -29 161.5 -120t-4.5 -218l-104 -233 q-35 -81 -23.5 -138t57 -88t113.5 -32q87 0 168 34l35 -116q-101 -45 -211 -45q-130 0 -213 58t-97.5 154.5t38.5 221.5l98 213q45 100 2.5 172.5t-145.5 72.5h-185z" />
<glyph unicode="|" horiz-adv-x="499" d="M170 -440v1874h158v-1874h-158z" />
<glyph unicode="}" horiz-adv-x="817" d="M53 -229l35 116q81 -34 168 -34q68 1 113.5 32t57 88t-23.5 138l-104 233q-37 85 -25 154t60.5 117t122.5 67q-74 19 -122.5 67t-60.5 117t25 154l104 233q35 81 23.5 138t-57 88t-113.5 32q-87 0 -168 -34l-35 116q101 45 211 45q130 0 213 -58t98 -154.5t-38 -221.5 l-99 -213q-45 -100 -2 -173t146 -73h184v-127h-182q-104 0 -148 -72.5t2 -172.5l99 -213q53 -125 38 -221.5t-98 -154.5t-213 -58q-110 0 -211 45z" />
<glyph unicode="~" horiz-adv-x="1128" d="M135 670q72 258 238 258q53 0 136 -37.5t160.5 -75t116.5 -37.5t66.5 33.5t56.5 122.5l127 -33q-72 -258 -237 -258q-52 0 -135.5 37.5t-161.5 75t-117 37.5t-66.5 -33.5t-56.5 -122.5z" />
<glyph unicode="&#xa1;" horiz-adv-x="423" d="M106 1348q0 43 31 73.5t74 30.5t73.5 -30.5t30.5 -73.5q0 -44 -30.5 -75.5t-73.5 -31.5t-74 31.5t-31 75.5zM131 -61l12 1114h138l12 -1114h-162z" />
<glyph unicode="&#xa2;" horiz-adv-x="1126" d="M127 461v155q0 197 108.5 326.5t282.5 151.5v192h129v-192q143 -19 242 -113.5t131 -245.5h-158q-25 88 -80.5 144t-134.5 73v-827q79 17 134.5 73t80.5 144h158q-32 -149 -131.5 -244t-241.5 -114v-203h-129v203q-174 22 -282.5 151.5t-108.5 325.5zM283 473 q0 -139 63.5 -232.5t171.5 -115.5v827q-108 -22 -171.5 -115t-63.5 -231v-133z" />
<glyph unicode="&#xa3;" horiz-adv-x="1161" d="M76 0v139h82q102 0 154.5 80t19.5 203l-58 211h-182v125h148l-29 108q-43 173 -8 302.5t144 205.5t265 76q192 0 318 -111.5t145 -300.5h-153q-15 127 -100 202t-212 75q-160 0 -229 -118t-16 -312l34 -127h392v-125h-359l53 -197q26 -100 6 -175t-79 -122h688v-139 h-1024z" />
<glyph unicode="&#xa5;" horiz-adv-x="1280" d="M16 1434h193l442 -682l439 682h188l-483 -742h282v-117h-348v-163h348v-117h-348v-295h-164v295h-346v117h346v163h-346v117h285z" />
<glyph unicode="&#xa7;" horiz-adv-x="1036" d="M31 643q0 109 58 187t155 106q-109 83 -109 215q0 135 95.5 218t248.5 83q163 0 275 -93t133 -237h-152q-17 90 -90.5 146.5t-165.5 56.5q-86 0 -138 -43.5t-52 -114.5q0 -60 40.5 -102.5t127.5 -73.5l268 -94q279 -98 279 -317q0 -106 -59 -183.5t-159 -107.5 q115 -81 115 -217q0 -132 -94.5 -215.5t-251.5 -83.5q-165 0 -279.5 92t-138.5 235h152q17 -88 92.5 -144t173.5 -56q88 0 141.5 42t53.5 111q0 124 -166 178l-275 95q-278 94 -278 317zM182 666q0 -74 42 -124.5t132 -80.5l211 -74q121 -37 203 16.5t82 153.5 q0 74 -42 124.5t-132 80.5l-238 82q-100 33 -179 -23t-79 -155z" />
<glyph unicode="&#xa8;" horiz-adv-x="1062" d="M252 1335q0 43 30 73t72 30t72.5 -30.5t30.5 -72.5q0 -43 -30.5 -73.5t-72.5 -30.5q-41 0 -71.5 30.5t-30.5 73.5zM608 1335q0 42 30.5 72.5t72.5 30.5q41 0 71.5 -30t30.5 -73t-30.5 -73.5t-71.5 -30.5t-72 30.5t-31 73.5z" />
<glyph unicode="&#xa9;" horiz-adv-x="1710" d="M117 715q0 152 58 289t156.5 236t235.5 157.5t289 58.5t289 -58t235.5 -156.5t156.5 -235t58 -287.5q0 -152 -58 -289.5t-156.5 -236.5t-235.5 -157.5t-289 -58.5t-289 58t-235.5 156.5t-156.5 235.5t-58 288zM227 715q0 -174 83.5 -320t228.5 -230.5t317 -84.5 q171 0 315.5 85t228 232t83.5 322q0 174 -83.5 320t-228 230.5t-315.5 84.5q-172 0 -317 -85t-228.5 -232t-83.5 -322zM487 717q0 158 111.5 268.5t273.5 110.5q189 0 308 -156l-95 -70q-36 52 -91.5 81.5t-121.5 29.5q-105 0 -180.5 -76.5t-75.5 -187.5q0 -110 75.5 -187 t180.5 -77q139 0 213 110l95 -67q-115 -158 -308 -158q-162 0 -273.5 110t-111.5 269z" />
<glyph unicode="&#xaa;" horiz-adv-x="823" d="M68 889q0 100 63.5 156.5t175.5 62.5l230 14v60q0 69 -39 107t-111 38q-108 0 -201 -78l-63 99q124 102 280 102q123 0 195 -68t72 -184v-354q0 -45 47 -45h39v-119h-72q-58 0 -95 29t-46 79q-33 -58 -91.5 -91t-129.5 -33q-110 0 -182 63.5t-72 161.5zM199 893 q0 -53 41.5 -87t105.5 -34q79 0 135 49.5t56 120.5v78l-213 -12q-59 -3 -92 -33t-33 -82z" />
<glyph unicode="&#xab;" horiz-adv-x="1232" d="M43 541l504 538h180l-491 -536l499 -543h-188zM485 541l504 538h180l-491 -536l500 -543h-189z" />
<glyph unicode="&#xad;" horiz-adv-x="933" d="M135 541v141h664v-141h-664z" />
<glyph unicode="&#xae;" horiz-adv-x="964" d="M72 1044q0 172 119.5 292t289.5 120t290 -120t120 -292t-119.5 -291.5t-290.5 -119.5q-170 0 -289.5 119.5t-119.5 291.5zM152 1044q0 -140 95.5 -237.5t233.5 -97.5t234 97.5t96 237.5t-96 238t-234 98t-233.5 -98t-95.5 -238zM344 858v383h158q52 0 85.5 -33.5 t33.5 -83.5q0 -35 -19.5 -62.5t-52.5 -41.5l96 -162h-86l-86 152h-51v-152h-78zM422 1071h61q27 0 43.5 15.5t16.5 37.5q0 23 -16 37.5t-44 14.5h-61v-105z" />
<glyph unicode="&#xaf;" horiz-adv-x="1024" d="M266 1262v112h508v-112h-508z" />
<glyph unicode="&#xb0;" horiz-adv-x="755" d="M86 1165q0 118 84.5 203.5t208.5 85.5q121 0 206 -86t85 -203q0 -124 -85.5 -210.5t-205.5 -86.5q-124 0 -208.5 86t-84.5 211zM195 1167q0 -80 53.5 -137t130.5 -57q75 0 128.5 57t53.5 137q0 75 -54 129t-128 54q-76 0 -130 -54.5t-54 -128.5z" />
<glyph unicode="&#xb1;" horiz-adv-x="1126" d="M135 0v129h856v-129h-856zM135 717v131h363v354h133v-354h360v-131h-360v-363h-133v363h-363z" />
<glyph unicode="&#xb2;" horiz-adv-x="632" d="M41 1286q39 76 107 118t157 42q114 0 185 -66t71 -166q1 -63 -26 -118t-93 -125l-206 -221l335 2v-107h-505v80l284 307q49 52 69.5 90.5t20.5 83.5q0 60 -39.5 97.5t-99.5 37.5q-105 0 -164 -108z" />
<glyph unicode="&#xb3;" horiz-adv-x="665" d="M43 788l102 54q25 -50 71.5 -78.5t105.5 -28.5q66 0 107.5 38.5t41.5 96.5q0 55 -37 91t-96 36h-107v101h97q52 0 86.5 34t34.5 85q0 55 -39.5 89.5t-100.5 34.5q-105 0 -155 -102l-101 51q35 72 104 114t162 42q107 -2 178.5 -63.5t71.5 -153.5q0 -58 -31.5 -103 t-86.5 -67q64 -22 104.5 -75.5t40.5 -119.5q0 -99 -76.5 -166t-195.5 -67q-98 0 -170.5 42t-110.5 115z" />
<glyph unicode="&#xb4;" horiz-adv-x="1024" d="M309 1204l234 266h188l-264 -266h-158z" />
<glyph unicode="&#xb6;" horiz-adv-x="1155" d="M49 1014q0 176 123 298t305 122h541v-1434h-141v598h-146v-598h-141v598h-113q-182 0 -305 121t-123 295z" />
<glyph unicode="&#xb7;" horiz-adv-x="436" d="M113 616q0 44 30.5 75.5t73.5 31.5t74 -31.5t31 -75.5q0 -43 -31 -73.5t-74 -30.5t-73.5 30.5t-30.5 73.5z" />
<glyph unicode="&#xb8;" horiz-adv-x="1024" d="M346 -371l76 64q55 -68 135 -68q49 0 79 26t30 68q0 41 -34 67t-89 26h-68l60 200h96l-37 -125q82 -6 131 -52t49 -118q0 -78 -61 -131t-152 -53q-67 0 -125 26t-90 70z" />
<glyph unicode="&#xb9;" horiz-adv-x="561" d="M57 645v107h164v575h-145v107h268v-682h164v-107h-451z" />
<glyph unicode="&#xba;" horiz-adv-x="854" d="M92 1010v98q0 155 93 249.5t241 94.5t242 -94t94 -250v-98q0 -156 -94 -250t-242 -94q-147 0 -240.5 94.5t-93.5 249.5zM225 1016q0 -106 54.5 -169t146.5 -63t147.5 63t55.5 169v86q0 106 -55.5 169.5t-147.5 63.5t-146.5 -63.5t-54.5 -169.5v-86z" />
<glyph unicode="&#xbb;" horiz-adv-x="1232" d="M55 1079h189l504 -540l-504 -539h-181l492 537zM498 1079h188l504 -540l-504 -539h-180l491 537z" />
<glyph unicode="&#xbc;" horiz-adv-x="1419" d="M57 645v107h164v575h-145v107h268v-682h164v-107h-451zM262 0l785 1434h135l-787 -1434h-133zM782 199v92l351 497h157v-485h99v-104h-99v-199h-123v199h-385zM913 303h254v369z" />
<glyph unicode="&#xbd;" horiz-adv-x="1480" d="M57 645v107h164v575h-145v107h268v-682h164v-107h-451zM258 0l784 1434h136l-787 -1434h-133zM899 641q39 76 107 118t157 42q114 0 185 -66t71 -166q1 -63 -26 -118t-93 -125l-206 -222l336 2v-106h-506v80l284 307q49 52 69.5 90.5t20.5 83.5q0 60 -39.5 97.5 t-99.5 37.5q-105 0 -164 -108z" />
<glyph unicode="&#xbe;" horiz-adv-x="1431" d="M43 788l102 54q25 -50 71.5 -78.5t105.5 -28.5q66 0 107.5 38.5t41.5 96.5q0 55 -37 91t-96 36h-107v101h97q52 0 86.5 34t34.5 85q0 55 -39.5 89.5t-100.5 34.5q-105 0 -155 -102l-101 51q35 72 104 114t162 42q107 -2 178.5 -63.5t71.5 -153.5q0 -58 -31.5 -103 t-86.5 -67q64 -22 104.5 -75.5t40.5 -119.5q0 -99 -76.5 -166t-195.5 -67q-98 0 -170.5 42t-110.5 115zM301 0l784 1434h136l-787 -1434h-133zM821 199v92l350 497h158v-485h98v-104h-98v-199h-123v199h-385zM952 303h254v369z" />
<glyph unicode="&#xbf;" horiz-adv-x="1030" d="M92 399q0 165 105.5 282t273.5 132l6 240h133l6 -367h-79q-127 0 -207 -80.5t-80 -199.5q0 -122 86.5 -203.5t222.5 -81.5q94 0 177 43.5t141 120.5l116 -84q-77 -104 -190 -162.5t-248 -58.5q-201 0 -332 121t-131 298zM444 1358q0 43 31 73.5t74 30.5t73.5 -30.5 t30.5 -73.5q0 -44 -30.5 -75.5t-73.5 -31.5t-74 31.5t-31 75.5z" />
<glyph unicode="&#xc0;" horiz-adv-x="1343" d="M12 0l568 1434h184l567 -1434h-178l-154 399h-661l-154 -399h-172zM373 1874h188l234 -266h-160zM393 545h551l-274 715z" />
<glyph unicode="&#xc1;" horiz-adv-x="1343" d="M12 0l568 1434h184l567 -1434h-178l-154 399h-661l-154 -399h-172zM393 545h551l-274 715zM549 1608l233 266h189l-264 -266h-158z" />
<glyph unicode="&#xc2;" horiz-adv-x="1343" d="M12 0l568 1434h184l567 -1434h-178l-154 399h-661l-154 -399h-172zM373 1608l223 266h160l223 -266h-145l-158 172l-158 -172h-145zM393 545h551l-274 715z" />
<glyph unicode="&#xc3;" horiz-adv-x="1343" d="M12 0l568 1434h184l567 -1434h-178l-154 399h-661l-154 -399h-172zM360 1638q60 217 189 217q38 0 86.5 -31t91 -62t64.5 -31q28 0 47.5 27.5t42.5 101.5l104 -25q-56 -215 -186 -215q-38 0 -87 31t-91.5 61.5t-63.5 30.5q-28 0 -47.5 -27.5t-44.5 -101.5zM393 545h551 l-274 715z" />
<glyph unicode="&#xc4;" horiz-adv-x="1343" d="M12 0l568 1434h184l567 -1434h-178l-154 399h-661l-154 -399h-172zM393 545h551l-274 715zM393 1739q0 42 30.5 72t72.5 30t72 -30t30 -72q0 -43 -30.5 -74t-71.5 -31t-72 31t-31 74zM750 1739q0 42 30 72t72 30t72 -30t30 -72q0 -43 -30.5 -74t-71.5 -31t-71.5 31 t-30.5 74z" />
<glyph unicode="&#xc5;" horiz-adv-x="1343" d="M12 0l568 1434h184l567 -1434h-178l-154 399h-661l-154 -399h-172zM393 545h551l-274 715zM459 1782q0 86 63 147.5t152 61.5t152 -61.5t63 -147.5t-63 -147.5t-152 -61.5t-152 61.5t-63 147.5zM547 1782q0 -53 36.5 -89t90.5 -36t90.5 36t36.5 89t-36.5 89t-90.5 36 t-90.5 -36t-36.5 -89z" />
<glyph unicode="&#xc6;" horiz-adv-x="1955" d="M27 0l886 1434h924v-146h-694v-497h674v-144h-674v-502h694v-145h-858v379h-533l-229 -379h-190zM532 524h447v740z" />
<glyph unicode="&#xc7;" horiz-adv-x="1417" d="M131 635v164q0 150 46.5 274.5t128.5 207.5t194 129t241 46q225 0 385 -136t199 -372h-160q-35 170 -150 264.5t-274 94.5q-196 0 -321 -136t-125 -376v-156q0 -240 126 -376t320 -136q159 0 274 94t150 264h160q-38 -222 -183 -356t-351 -149l-27 -93q82 -6 131 -52 t49 -118q0 -78 -61 -131t-152 -53q-67 0 -125 26t-90 70l76 64q55 -68 135 -68q49 0 79 26t30 68q0 41 -34 67t-89 26h-68l49 168q-162 10 -288.5 91t-200.5 227.5t-74 336.5z" />
<glyph unicode="&#xc8;" horiz-adv-x="1214" d="M188 0v1434h908v-146h-744v-497h723v-144h-723v-502h744v-145h-908zM358 1874h189l233 -266h-159z" />
<glyph unicode="&#xc9;" horiz-adv-x="1214" d="M188 0v1434h908v-146h-744v-497h723v-144h-723v-502h744v-145h-908zM537 1608l233 266h188l-264 -266h-157z" />
<glyph unicode="&#xca;" horiz-adv-x="1214" d="M188 0v1434h908v-146h-744v-497h723v-144h-723v-502h744v-145h-908zM358 1608l224 266h159l224 -266h-146l-157 172l-158 -172h-146z" />
<glyph unicode="&#xcb;" horiz-adv-x="1214" d="M188 0v1434h908v-146h-744v-497h723v-144h-723v-502h744v-145h-908zM381 1739q0 42 30 72t72 30t72.5 -30t30.5 -72q0 -43 -31 -74t-72 -31t-71.5 31t-30.5 74zM737 1739q0 42 30.5 72t72.5 30t72 -30t30 -72q0 -43 -30.5 -74t-71.5 -31t-72 31t-31 74z" />
<glyph unicode="&#xcc;" horiz-adv-x="542" d="M-31 1874h189l233 -266h-160zM188 0v1434h164v-1434h-164z" />
<glyph unicode="&#xcd;" horiz-adv-x="542" d="M147 1608l234 266h188l-264 -266h-158zM188 0v1434h164v-1434h-164z" />
<glyph unicode="&#xce;" horiz-adv-x="542" d="M-31 1608l224 266h159l223 -266h-145l-158 172l-157 -172h-146zM188 0v1434h164v-1434h-164z" />
<glyph unicode="&#xcf;" horiz-adv-x="542" d="M-8 1739q0 42 30 72t72 30t72.5 -30t30.5 -72q0 -43 -31 -74t-72 -31t-71.5 31t-30.5 74zM188 0v1434h164v-1434h-164zM348 1739q0 42 30.5 72t72.5 30t72 -30t30 -72q0 -43 -30.5 -74t-71.5 -31t-72 31t-31 74z" />
<glyph unicode="&#xd0;" horiz-adv-x="1472" d="M6 647v141h197v646h512q292 0 459 -172t167 -465v-162q0 -292 -166.5 -463.5t-459.5 -171.5h-512v647h-197zM367 145h338q226 0 349.5 129.5t123.5 364.5v154q0 233 -124 364t-349 131h-338v-500h309v-141h-309v-502z" />
<glyph unicode="&#xd1;" horiz-adv-x="1519" d="M188 0v1434h183l805 -1201l-2 1201h155v-1434h-178l-809 1202l2 -1202h-156zM446 1638q60 217 189 217q38 0 86.5 -31t91 -62t64.5 -31q28 0 47.5 27.5t42.5 101.5l104 -25q-56 -215 -186 -215q-38 0 -87 31t-91.5 61.5t-63.5 30.5q-28 0 -47.5 -27.5t-44.5 -101.5z" />
<glyph unicode="&#xd2;" horiz-adv-x="1515" d="M131 635v164q0 296 173.5 476.5t453.5 180.5q281 0 453.5 -180t172.5 -477v-164q0 -297 -172.5 -477.5t-453.5 -180.5q-280 0 -453.5 181t-173.5 477zM295 645q0 -243 127 -380.5t336 -137.5q210 0 336.5 137t126.5 381v143q0 244 -126.5 381.5t-336.5 137.5 t-336.5 -137.5t-126.5 -381.5v-143zM457 1874h188l234 -266h-160z" />
<glyph unicode="&#xd3;" horiz-adv-x="1515" d="M131 635v164q0 296 173.5 476.5t453.5 180.5q281 0 453.5 -180t172.5 -477v-164q0 -297 -172.5 -477.5t-453.5 -180.5q-280 0 -453.5 181t-173.5 477zM295 645q0 -243 127 -380.5t336 -137.5q210 0 336.5 137t126.5 381v143q0 244 -126.5 381.5t-336.5 137.5 t-336.5 -137.5t-126.5 -381.5v-143zM633 1608l233 266h189l-264 -266h-158z" />
<glyph unicode="&#xd4;" horiz-adv-x="1515" d="M131 635v164q0 296 173.5 476.5t453.5 180.5q281 0 453.5 -180t172.5 -477v-164q0 -297 -172.5 -477.5t-453.5 -180.5q-280 0 -453.5 181t-173.5 477zM295 645q0 -243 127 -380.5t336 -137.5q210 0 336.5 137t126.5 381v143q0 244 -126.5 381.5t-336.5 137.5 t-336.5 -137.5t-126.5 -381.5v-143zM457 1608l223 266h160l223 -266h-145l-158 172l-158 -172h-145z" />
<glyph unicode="&#xd5;" horiz-adv-x="1515" d="M131 635v164q0 296 173.5 476.5t453.5 180.5q281 0 453.5 -180t172.5 -477v-164q0 -297 -172.5 -477.5t-453.5 -180.5q-280 0 -453.5 181t-173.5 477zM295 645q0 -243 127 -380.5t336 -137.5q210 0 336.5 137t126.5 381v143q0 244 -126.5 381.5t-336.5 137.5 t-336.5 -137.5t-126.5 -381.5v-143zM444 1638q60 217 189 217q38 0 86.5 -31t90.5 -62t64 -31q28 0 48 27.5t43 101.5l104 -25q-56 -215 -186 -215q-38 0 -87 31t-91.5 61.5t-63.5 30.5q-28 0 -47.5 -27.5t-44.5 -101.5z" />
<glyph unicode="&#xd6;" horiz-adv-x="1515" d="M131 635v164q0 296 173.5 476.5t453.5 180.5q281 0 453.5 -180t172.5 -477v-164q0 -297 -172.5 -477.5t-453.5 -180.5q-280 0 -453.5 181t-173.5 477zM295 645q0 -243 127 -380.5t336 -137.5q210 0 336.5 137t126.5 381v143q0 244 -126.5 381.5t-336.5 137.5 t-336.5 -137.5t-126.5 -381.5v-143zM477 1739q0 42 30.5 72t72.5 30t72 -30t30 -72q0 -43 -30.5 -74t-71.5 -31t-72 31t-31 74zM834 1739q0 42 30 72t72 30t72 -30t30 -72q0 -43 -30.5 -74t-71.5 -31t-71.5 31t-30.5 74z" />
<glyph unicode="&#xd7;" horiz-adv-x="1075" d="M135 416l316 319l-316 320l88 88l316 -320l313 320l86 -86l-315 -320l317 -321l-88 -88l-315 321l-316 -319z" />
<glyph unicode="&#xd8;" horiz-adv-x="1515" d="M111 0l157 201q-137 173 -137 434v164q0 296 173.5 476.5t453.5 180.5q237 0 399 -131l86 109h160l-156 -199q137 -173 137 -436v-164q0 -297 -172.5 -477.5t-453.5 -180.5q-237 0 -402 134l-86 -111h-159zM295 645q0 -182 78 -313l688 870q-120 105 -303 105 q-210 0 -336.5 -137.5t-126.5 -381.5v-143zM455 233q118 -106 303 -106q210 0 336.5 137t126.5 381v143q0 185 -78 316z" />
<glyph unicode="&#xd9;" horiz-adv-x="1452" d="M168 528v906h164v-893q0 -186 108.5 -300t274.5 -114q164 0 274.5 115t110.5 299v893h164v-1434h-164v219q-62 -107 -169.5 -173t-242.5 -66q-145 0 -263 67t-187.5 193t-69.5 288zM416 1874h188l234 -266h-160z" />
<glyph unicode="&#xda;" horiz-adv-x="1452" d="M168 528v906h164v-893q0 -186 108.5 -300t274.5 -114q164 0 274.5 115t110.5 299v893h164v-1434h-164v219q-62 -107 -169.5 -173t-242.5 -66q-145 0 -263 67t-187.5 193t-69.5 288zM592 1608l233 266h189l-264 -266h-158z" />
<glyph unicode="&#xdb;" horiz-adv-x="1452" d="M168 528v906h164v-893q0 -186 108.5 -300t274.5 -114q164 0 274.5 115t110.5 299v893h164v-1434h-164v219q-62 -107 -169.5 -173t-242.5 -66q-145 0 -263 67t-187.5 193t-69.5 288zM416 1608l223 266h160l223 -266h-145l-158 172l-158 -172h-145z" />
<glyph unicode="&#xdc;" horiz-adv-x="1452" d="M168 528v906h164v-893q0 -186 108.5 -300t274.5 -114q164 0 274.5 115t110.5 299v893h164v-1434h-164v219q-62 -107 -169.5 -173t-242.5 -66q-145 0 -263 67t-187.5 193t-69.5 288zM436 1739q0 42 30.5 72t72.5 30t72 -30t30 -72q0 -43 -30.5 -74t-71.5 -31t-72 31 t-31 74zM793 1739q0 42 30 72t72 30t72 -30t30 -72q0 -43 -30.5 -74t-71.5 -31t-71.5 31t-30.5 74z" />
<glyph unicode="&#xdd;" horiz-adv-x="1265" d="M2 1434h193l442 -682l438 682h189l-549 -842v-592h-164v598zM508 1608l233 266h189l-264 -266h-158z" />
<glyph unicode="&#xde;" horiz-adv-x="1210" d="M188 0v1434h164v-297h344q185 0 309.5 -122t124.5 -300q0 -176 -124.5 -297t-309.5 -121h-344v-297h-164zM352 436h336q120 0 198.5 80t78.5 197q0 118 -78.5 199t-198.5 81h-336v-557z" />
<glyph unicode="&#xdf;" horiz-adv-x="1353" d="M180 0v1032q0 218 132 345.5t343 127.5q188 0 311.5 -99t123.5 -251q0 -93 -39.5 -153t-126.5 -115l-138 -84q-41 -27 -58 -48.5t-17 -49.5q0 -38 31.5 -59.5t97.5 -41.5l155 -49q260 -79 260 -279q0 -130 -94.5 -213t-249.5 -83q-161 0 -266 85t-127 218h152 q15 -80 79 -128.5t160 -48.5q90 0 142.5 44.5t52.5 113.5q0 58 -38.5 94.5t-113.5 59.5l-145 43q-123 37 -184.5 91t-61.5 138q0 73 32.5 120.5t111.5 96.5l122 78q107 69 107 162q0 94 -79 156.5t-200 62.5q-141 0 -229 -92.5t-88 -241.5v-1032h-158z" />
<glyph unicode="&#xe0;" horiz-adv-x="1114" d="M86 297q0 143 89 223.5t245 89.5l342 19v100q0 106 -59.5 165.5t-167.5 59.5q-165 0 -289 -118l-82 112q171 148 387 148q169 0 268 -94t99 -252v-547q0 -30 18 -47t51 -17h53v-139h-88q-81 0 -130.5 43.5t-55.5 116.5q-48 -83 -132.5 -130.5t-189.5 -47.5 q-156 0 -257 88.5t-101 226.5zM233 1518h189l233 -267h-159zM240 303q0 -85 63.5 -138.5t163.5 -53.5q123 0 209 76.5t86 183.5v129l-324 -17q-93 -5 -145.5 -51.5t-52.5 -128.5z" />
<glyph unicode="&#xe1;" horiz-adv-x="1114" d="M86 297q0 143 89 223.5t245 89.5l342 19v100q0 106 -59.5 165.5t-167.5 59.5q-165 0 -289 -118l-82 112q171 148 387 148q169 0 268 -94t99 -252v-547q0 -30 18 -47t51 -17h53v-139h-88q-81 0 -130.5 43.5t-55.5 116.5q-48 -83 -132.5 -130.5t-189.5 -47.5 q-156 0 -257 88.5t-101 226.5zM240 303q0 -85 63.5 -138.5t163.5 -53.5q123 0 209 76.5t86 183.5v129l-324 -17q-93 -5 -145.5 -51.5t-52.5 -128.5zM410 1251l233 267h188l-264 -267h-157z" />
<glyph unicode="&#xe2;" horiz-adv-x="1114" d="M86 297q0 143 89 223.5t245 89.5l342 19v100q0 106 -59.5 165.5t-167.5 59.5q-165 0 -289 -118l-82 112q171 148 387 148q169 0 268 -94t99 -252v-547q0 -30 18 -47t51 -17h53v-139h-88q-81 0 -130.5 43.5t-55.5 116.5q-48 -83 -132.5 -130.5t-189.5 -47.5 q-156 0 -257 88.5t-101 226.5zM233 1251l224 267h159l224 -267h-146l-157 172l-158 -172h-146zM240 303q0 -85 63.5 -138.5t163.5 -53.5q123 0 209 76.5t86 183.5v129l-324 -17q-93 -5 -145.5 -51.5t-52.5 -128.5z" />
<glyph unicode="&#xe3;" horiz-adv-x="1114" d="M86 297q0 143 89 223.5t245 89.5l342 19v100q0 106 -59.5 165.5t-167.5 59.5q-165 0 -289 -118l-82 112q171 148 387 148q169 0 268 -94t99 -252v-547q0 -30 18 -47t51 -17h53v-139h-88q-81 0 -130.5 43.5t-55.5 116.5q-48 -83 -132.5 -130.5t-189.5 -47.5 q-156 0 -257 88.5t-101 226.5zM221 1282q60 217 189 217q38 0 86.5 -31.5t90.5 -62.5t64 -31q28 0 47.5 27.5t42.5 101.5l105 -24q-56 -215 -187 -215q-38 0 -87 30.5t-91 61t-63 30.5q-28 0 -47.5 -27.5t-44.5 -101.5zM240 303q0 -85 63.5 -138.5t163.5 -53.5 q123 0 209 76.5t86 183.5v129l-324 -17q-93 -5 -145.5 -51.5t-52.5 -128.5z" />
<glyph unicode="&#xe4;" horiz-adv-x="1114" d="M86 297q0 143 89 223.5t245 89.5l342 19v100q0 106 -59.5 165.5t-167.5 59.5q-165 0 -289 -118l-82 112q171 148 387 148q169 0 268 -94t99 -252v-547q0 -30 18 -47t51 -17h53v-139h-88q-81 0 -130.5 43.5t-55.5 116.5q-48 -83 -132.5 -130.5t-189.5 -47.5 q-156 0 -257 88.5t-101 226.5zM240 303q0 -85 63.5 -138.5t163.5 -53.5q123 0 209 76.5t86 183.5v129l-324 -17q-93 -5 -145.5 -51.5t-52.5 -128.5zM254 1382q0 42 30 72.5t72 30.5t72.5 -30.5t30.5 -72.5t-30.5 -73t-72.5 -31q-41 0 -71.5 30.5t-30.5 73.5zM610 1382 q0 42 30.5 72.5t72.5 30.5q41 0 71.5 -30.5t30.5 -72.5q0 -43 -30.5 -73.5t-71.5 -30.5t-72 31t-31 73z" />
<glyph unicode="&#xe5;" horiz-adv-x="1114" d="M86 297q0 143 89 223.5t245 89.5l342 19v100q0 106 -59.5 165.5t-167.5 59.5q-165 0 -289 -118l-82 112q171 148 387 148q169 0 268 -94t99 -252v-547q0 -30 18 -47t51 -17h53v-139h-88q-81 0 -130.5 43.5t-55.5 116.5q-48 -83 -132.5 -130.5t-189.5 -47.5 q-156 0 -257 88.5t-101 226.5zM240 303q0 -85 63.5 -138.5t163.5 -53.5q123 0 209 76.5t86 183.5v129l-324 -17q-93 -5 -145.5 -51.5t-52.5 -128.5zM319 1425q0 86 63.5 147.5t152.5 61.5t152 -61.5t63 -147.5t-63 -147t-152 -61t-152.5 61t-63.5 147zM408 1425 q0 -53 36.5 -89t90.5 -36t90.5 36t36.5 89t-36.5 89t-90.5 36t-90.5 -36t-36.5 -89z" />
<glyph unicode="&#xe6;" horiz-adv-x="1769" d="M86 299q0 140 89.5 219.5t244.5 87.5l346 19v106q0 106 -60.5 165.5t-170.5 59.5q-165 0 -289 -118l-82 112q171 148 387 148q116 0 199.5 -48.5t123.5 -136.5q59 87 150.5 136t200.5 49q187 0 309.5 -133.5t122.5 -339.5v-129h-733v-31q0 -156 87.5 -252t225.5 -96 q171 0 289 147l108 -92q-151 -192 -399 -192q-130 0 -232.5 64t-158.5 177q-47 -108 -151 -174.5t-238 -66.5q-160 0 -264.5 90t-104.5 229zM240 303q0 -83 64 -136.5t165 -53.5q124 0 210.5 75.5t86.5 180.5v127l-328 -17q-94 -5 -146 -50t-52 -126zM924 625h577v2 q0 148 -78 241t-200 93q-130 0 -214.5 -94.5t-84.5 -241.5z" />
<glyph unicode="&#xe7;" horiz-adv-x="1105" d="M123 461v155q0 216 128 349t327 133q168 0 285.5 -97.5t152.5 -265.5h-158q-29 105 -102.5 164t-177.5 59q-135 0 -217 -97t-82 -255v-133q0 -160 82 -257t217 -97q104 0 177.5 59t102.5 164h158q-32 -153 -135.5 -249t-251.5 -111l-29 -95q82 -6 131 -52t49 -118 q0 -78 -61 -131t-152 -53q-67 0 -125 26t-90 70l76 64q55 -68 135 -68q49 0 79 26t30 68q0 41 -34 67t-89 26h-68l51 170q-182 15 -295.5 146t-113.5 333z" />
<glyph unicode="&#xe8;" horiz-adv-x="1120" d="M123 463v153q0 211 129 346.5t328 135.5q185 0 306.5 -133.5t121.5 -339.5v-133h-729v-27q0 -154 87 -250t224 -96q175 0 287 147l110 -92q-152 -192 -401 -192q-201 0 -332 135t-131 346zM279 621h575v8q0 147 -79 239.5t-200 92.5q-130 0 -213 -95t-83 -245zM279 1520 h188l233 -267h-159z" />
<glyph unicode="&#xe9;" horiz-adv-x="1120" d="M123 463v153q0 211 129 346.5t328 135.5q185 0 306.5 -133.5t121.5 -339.5v-133h-729v-27q0 -154 87 -250t224 -96q175 0 287 147l110 -92q-152 -192 -401 -192q-201 0 -332 135t-131 346zM279 621h575v8q0 147 -79 239.5t-200 92.5q-130 0 -213 -95t-83 -245zM455 1253 l233 267h189l-265 -267h-157z" />
<glyph unicode="&#xea;" horiz-adv-x="1120" d="M123 463v153q0 211 129 346.5t328 135.5q185 0 306.5 -133.5t121.5 -339.5v-133h-729v-27q0 -154 87 -250t224 -96q175 0 287 147l110 -92q-152 -192 -401 -192q-201 0 -332 135t-131 346zM279 621h575v8q0 147 -79 239.5t-200 92.5q-130 0 -213 -95t-83 -245zM279 1253 l223 267h160l223 -267h-146l-157 172l-158 -172h-145z" />
<glyph unicode="&#xeb;" horiz-adv-x="1120" d="M123 463v153q0 211 129 346.5t328 135.5q185 0 306.5 -133.5t121.5 -339.5v-133h-729v-27q0 -154 87 -250t224 -96q175 0 287 147l110 -92q-152 -192 -401 -192q-201 0 -332 135t-131 346zM279 621h575v8q0 147 -79 239.5t-200 92.5q-130 0 -213 -95t-83 -245zM299 1384 q0 42 30.5 72.5t71.5 30.5q42 0 72.5 -30.5t30.5 -72.5t-31 -73t-72 -31t-71.5 30.5t-30.5 73.5zM655 1384q0 42 30.5 72.5t72.5 30.5t72 -30.5t30 -72.5q0 -43 -30.5 -73.5t-71.5 -30.5q-42 0 -72.5 31t-30.5 73z" />
<glyph unicode="&#xec;" horiz-adv-x="518" d="M-43 1518h188l234 -267h-160zM180 0v1079h158v-1079h-158z" />
<glyph unicode="&#xed;" horiz-adv-x="518" d="M133 1251l234 267h188l-264 -267h-158zM180 0v1079h158v-1079h-158z" />
<glyph unicode="&#xee;" horiz-adv-x="518" d="M-43 1253l223 267h160l223 -267h-145l-158 172l-158 -172h-145zM180 0v1079h158v-1079h-158z" />
<glyph unicode="&#xef;" horiz-adv-x="518" d="M-23 1382q0 42 30.5 72.5t72.5 30.5t72 -30.5t30 -72.5q0 -43 -30.5 -73.5t-71.5 -30.5q-42 0 -72.5 31t-30.5 73zM180 0v1079h158v-1079h-158zM334 1382q0 42 30 72.5t72 30.5t72.5 -30.5t30.5 -72.5t-30.5 -73t-72.5 -31q-41 0 -71.5 30.5t-30.5 73.5z" />
<glyph unicode="&#xf0;" horiz-adv-x="1177" d="M123 459v137q0 210 123.5 340.5t314.5 130.5q103 0 185 -43.5t135 -122.5q-54 227 -203 379l-193 -121l-63 96l166 105q-87 66 -197 104l60 119q148 -56 260 -145l223 139l61 -96l-196 -125q256 -271 256 -727v-164q0 -218 -131.5 -351.5t-335.5 -133.5q-203 0 -334 133 t-131 346zM279 469q0 -158 84.5 -254t224.5 -96q141 0 226 96t85 254v117q0 157 -85 253.5t-226 96.5q-139 0 -224 -96.5t-85 -253.5v-117z" />
<glyph unicode="&#xf1;" d="M180 0v1079h158v-202q43 103 135 163t207 60q168 0 273.5 -113t105.5 -282v-705h-158v674q0 123 -74.5 202.5t-195.5 79.5q-128 0 -210.5 -83.5t-82.5 -210.5v-662h-158zM307 1284q60 217 189 217q38 0 86.5 -31.5t90.5 -62.5t64 -31q28 0 47.5 27.5t42.5 101.5l105 -24 q-56 -215 -187 -215q-38 0 -87 31t-91 61.5t-63 30.5q-28 0 -47.5 -27.5t-44.5 -101.5z" />
<glyph unicode="&#xf2;" horiz-adv-x="1175" d="M123 461v155q0 216 130.5 349t334.5 133q202 0 333.5 -133t131.5 -349v-155q0 -215 -131.5 -348t-333.5 -133q-203 0 -334 133t-131 348zM279 473q0 -160 84 -257t225 -97q139 0 224 97t85 257v133q0 158 -85 255t-224 97q-141 0 -225 -96.5t-84 -255.5v-133zM287 1520 h188l234 -267h-160z" />
<glyph unicode="&#xf3;" horiz-adv-x="1175" d="M123 461v155q0 216 130.5 349t334.5 133q202 0 333.5 -133t131.5 -349v-155q0 -215 -131.5 -348t-333.5 -133q-203 0 -334 133t-131 348zM279 473q0 -160 84 -257t225 -97q139 0 224 97t85 257v133q0 158 -85 255t-224 97q-141 0 -225 -96.5t-84 -255.5v-133zM463 1253 l233 267h189l-264 -267h-158z" />
<glyph unicode="&#xf4;" horiz-adv-x="1175" d="M123 461v155q0 216 130.5 349t334.5 133q202 0 333.5 -133t131.5 -349v-155q0 -215 -131.5 -348t-333.5 -133q-203 0 -334 133t-131 348zM279 473q0 -160 84 -257t225 -97q139 0 224 97t85 257v133q0 158 -85 255t-224 97q-141 0 -225 -96.5t-84 -255.5v-133zM287 1253 l223 267h160l223 -267h-145l-158 172l-158 -172h-145z" />
<glyph unicode="&#xf5;" horiz-adv-x="1175" d="M123 461v155q0 216 130.5 349t334.5 133q202 0 333.5 -133t131.5 -349v-155q0 -215 -131.5 -348t-333.5 -133q-203 0 -334 133t-131 348zM274 1284q60 217 189 217q38 0 86.5 -31.5t91 -62.5t64.5 -31q28 0 47.5 27.5t42.5 101.5l104 -24q-56 -215 -186 -215 q-38 0 -87 31t-91.5 61.5t-63.5 30.5q-28 0 -47.5 -27.5t-44.5 -101.5zM279 473q0 -160 84 -257t225 -97q139 0 224 97t85 257v133q0 158 -85 255t-224 97q-141 0 -225 -96.5t-84 -255.5v-133z" />
<glyph unicode="&#xf6;" horiz-adv-x="1175" d="M123 461v155q0 216 130.5 349t334.5 133q202 0 333.5 -133t131.5 -349v-155q0 -215 -131.5 -348t-333.5 -133q-203 0 -334 133t-131 348zM279 473q0 -160 84 -257t225 -97q139 0 224 97t85 257v133q0 158 -85 255t-224 97q-141 0 -225 -96.5t-84 -255.5v-133zM307 1384 q0 42 30.5 72.5t72.5 30.5t72 -30.5t30 -72.5q0 -43 -30.5 -73.5t-71.5 -30.5q-42 0 -72.5 31t-30.5 73zM664 1384q0 42 30 72.5t72 30.5t72 -30.5t30 -72.5q0 -43 -30.5 -73.5t-71.5 -30.5t-71.5 30.5t-30.5 73.5z" />
<glyph unicode="&#xf7;" horiz-adv-x="1124" d="M135 674v127h854v-127h-854zM457 352q0 44 30.5 75.5t73.5 31.5t74 -31.5t31 -75.5q0 -43 -31 -73.5t-74 -30.5t-73.5 30.5t-30.5 73.5zM457 1108q0 44 30.5 75t73.5 31t74 -31t31 -75q0 -43 -31 -73.5t-74 -30.5t-73.5 30.5t-30.5 73.5z" />
<glyph unicode="&#xf8;" horiz-adv-x="1185" d="M92 0l127 158q-92 125 -92 303v155q0 216 130.5 349t334.5 133q176 0 301 -103l68 84h139l-133 -164q90 -126 90 -299v-155q0 -215 -131.5 -348t-333.5 -133q-176 0 -297 100l-64 -80h-139zM283 473q0 -105 39 -188l477 594q-79 79 -207 79q-141 0 -225 -96.5t-84 -255.5 v-133zM387 195q82 -76 205 -76q139 0 224 97t85 257v133q0 105 -37 180z" />
<glyph unicode="&#xf9;" d="M180 373v706h158v-676q0 -121 75 -200.5t195 -79.5q128 0 210.5 83.5t82.5 211.5v661h158v-1079h-158v203q-43 -104 -134 -163.5t-206 -59.5q-169 0 -275 112.5t-106 280.5zM319 1518h189l233 -267h-159z" />
<glyph unicode="&#xfa;" d="M180 373v706h158v-676q0 -121 75 -200.5t195 -79.5q128 0 210.5 83.5t82.5 211.5v661h158v-1079h-158v203q-43 -104 -134 -163.5t-206 -59.5q-169 0 -275 112.5t-106 280.5zM496 1251l233 267h189l-265 -267h-157z" />
<glyph unicode="&#xfb;" d="M180 373v706h158v-676q0 -121 75 -200.5t195 -79.5q128 0 210.5 83.5t82.5 211.5v661h158v-1079h-158v203q-43 -104 -134 -163.5t-206 -59.5q-169 0 -275 112.5t-106 280.5zM319 1253l224 267h159l224 -267h-146l-157 172l-158 -172h-146z" />
<glyph unicode="&#xfc;" d="M180 373v706h158v-676q0 -121 75 -200.5t195 -79.5q128 0 210.5 83.5t82.5 211.5v661h158v-1079h-158v203q-43 -104 -134 -163.5t-206 -59.5q-169 0 -275 112.5t-106 280.5zM340 1382q0 42 30 72.5t72 30.5t72.5 -30.5t30.5 -72.5t-30.5 -73t-72.5 -31q-41 0 -71.5 30.5 t-30.5 73.5zM696 1382q0 42 30.5 72.5t72.5 30.5q41 0 71.5 -30.5t30.5 -72.5q0 -43 -30.5 -73.5t-71.5 -30.5t-72 31t-31 73z" />
<glyph unicode="&#xfd;" horiz-adv-x="1036" d="M10 1079h166l350 -862l336 862h164l-522 -1312q-40 -105 -102 -156t-162 -51h-140v137h115q105 0 150 115l79 202zM397 1253l234 267h188l-264 -267h-158z" />
<glyph unicode="&#xfe;" d="M180 -440v1941h158v-606q53 96 144 149.5t206 53.5q188 0 308 -132t120 -345v-162q0 -213 -121 -346t-307 -133q-117 0 -207.5 55.5t-142.5 154.5v-630h-158zM338 473q0 -160 84.5 -257t226.5 -97t227 97t85 257v133q0 159 -85 255.5t-227 96.5t-226.5 -96.5 t-84.5 -255.5v-133z" />
<glyph unicode="&#xff;" horiz-adv-x="1036" d="M10 1079h166l350 -862l336 862h164l-522 -1312q-40 -105 -102 -156t-162 -51h-140v137h115q105 0 150 115l79 202zM242 1384q0 42 30 72.5t72 30.5t72 -30.5t30 -72.5q0 -43 -30.5 -73.5t-71.5 -30.5t-71.5 30.5t-30.5 73.5zM598 1384q0 42 30 72.5t72 30.5t72.5 -30.5 t30.5 -72.5t-30.5 -73t-72.5 -31q-41 0 -71.5 30.5t-30.5 73.5z" />
<glyph unicode="&#x152;" horiz-adv-x="2086" d="M131 637v162q0 292 167 463.5t460 171.5h1210v-146h-737v-497h717v-144h-717v-502h737v-145h-1210q-292 0 -459.5 172t-167.5 465zM295 641q0 -233 124 -364.5t349 -131.5h299v1143h-299q-226 0 -349.5 -129t-123.5 -364v-154z" />
<glyph unicode="&#x153;" horiz-adv-x="1904" d="M127 461v155q0 216 130 349t333 133q128 0 230 -60t159 -168q58 107 157.5 167.5t225.5 60.5q186 0 307 -133t121 -340v-133h-729v-27q0 -154 87.5 -250t223.5 -96q174 0 289 147l111 -92q-152 -192 -404 -192q-126 0 -228 60t-159 167q-57 -108 -160 -168.5t-231 -60.5 q-202 0 -332.5 133t-130.5 348zM285 473q0 -160 84 -257t223 -97q141 0 226 97t85 257v133q0 159 -85 255.5t-226 96.5q-139 0 -223 -96.5t-84 -255.5v-133zM1061 621h577v8q0 147 -79 239.5t-201 92.5q-130 0 -213.5 -95t-83.5 -245z" />
<glyph unicode="&#x178;" horiz-adv-x="1265" d="M2 1434h193l442 -682l438 682h189l-549 -842v-592h-164v598zM352 1739q0 42 30.5 72t72.5 30t72 -30t30 -72q0 -43 -30.5 -74t-71.5 -31t-72 31t-31 74zM709 1739q0 42 30 72t72 30t72 -30t30 -72q0 -43 -30.5 -74t-71.5 -31t-71.5 31t-30.5 74z" />
<glyph unicode="&#x2c6;" horiz-adv-x="1024" d="M211 1204l223 266h160l223 -266h-145l-158 172l-158 -172h-145z" />
<glyph unicode="&#x2dc;" horiz-adv-x="1024" d="M186 1235q60 217 189 217q30 0 67 -19.5t66 -43t59.5 -43t48.5 -19.5q28 0 48 27.5t43 101.5l104 -24q-56 -215 -186 -215q-38 0 -87 30.5t-91.5 61t-63.5 30.5q-28 0 -47.5 -27.5t-44.5 -101.5z" />
<glyph unicode="&#x2000;" horiz-adv-x="995" />
<glyph unicode="&#x2001;" horiz-adv-x="1991" />
<glyph unicode="&#x2002;" horiz-adv-x="995" />
<glyph unicode="&#x2003;" horiz-adv-x="1991" />
<glyph unicode="&#x2004;" horiz-adv-x="663" />
<glyph unicode="&#x2005;" horiz-adv-x="497" />
<glyph unicode="&#x2006;" horiz-adv-x="331" />
<glyph unicode="&#x2007;" horiz-adv-x="331" />
<glyph unicode="&#x2008;" horiz-adv-x="248" />
<glyph unicode="&#x2009;" horiz-adv-x="398" />
<glyph unicode="&#x200a;" horiz-adv-x="110" />
<glyph unicode="&#x2010;" horiz-adv-x="933" d="M135 541v141h664v-141h-664z" />
<glyph unicode="&#x2011;" horiz-adv-x="933" d="M135 541v141h664v-141h-664z" />
<glyph unicode="&#x2012;" horiz-adv-x="933" d="M135 541v141h664v-141h-664z" />
<glyph unicode="&#x2013;" horiz-adv-x="1241" d="M135 541v141h971v-141h-971z" />
<glyph unicode="&#x2014;" horiz-adv-x="1650" d="M135 541v141h1381v-141h-1381z" />
<glyph unicode="&#x2018;" horiz-adv-x="448" d="M82 1165q0 129 66 220.5t182 111.5v-86q-56 -10 -98 -60.5t-42 -99.5q0 -16 11.5 -29t28 -23.5t33.5 -22.5t28.5 -32t11.5 -46q0 -41 -29.5 -70t-68.5 -29q-56 0 -89.5 44t-33.5 122z" />
<glyph unicode="&#x2019;" horiz-adv-x="448" d="M119 1001v86q56 10 97.5 60.5t41.5 99.5q0 19 -17.5 35.5t-39 28t-39 35t-17.5 55.5q0 40 30 69t69 29q56 0 89.5 -44t33.5 -122q0 -129 -66 -220.5t-182 -111.5z" />
<glyph unicode="&#x201a;" horiz-adv-x="448" d="M90 -223q56 10 97.5 60.5t41.5 99.5q0 19 -17.5 35.5t-38.5 27.5t-38.5 34.5t-17.5 55.5q0 41 29.5 69.5t68.5 28.5q56 0 89.5 -43.5t33.5 -121.5q0 -129 -66 -220.5t-182 -111.5v86z" />
<glyph unicode="&#x201c;" horiz-adv-x="796" d="M82 1165q0 129 66 220.5t182 111.5v-86q-56 -10 -98 -60.5t-42 -99.5q0 -16 11.5 -29t28 -23.5t33.5 -22.5t28.5 -32t11.5 -46q0 -41 -29.5 -70t-68.5 -29q-56 0 -89.5 44t-33.5 122zM430 1165q0 129 66 220.5t182 111.5v-86q-56 -10 -97.5 -60.5t-41.5 -99.5 q0 -19 17.5 -35.5t38.5 -27.5t38.5 -34.5t17.5 -55.5q0 -41 -29.5 -70t-68.5 -29q-56 0 -89.5 44t-33.5 122z" />
<glyph unicode="&#x201d;" horiz-adv-x="796" d="M119 1001v86q56 10 97.5 60.5t41.5 99.5q0 19 -17.5 35.5t-39 28t-39 35t-17.5 55.5q0 40 30 69t69 29q56 0 89.5 -44t33.5 -122q0 -129 -66 -220.5t-182 -111.5zM467 1001v86q56 10 97.5 60.5t41.5 99.5q0 19 -17.5 35.5t-38.5 28t-38.5 35t-17.5 55.5q0 41 29.5 69.5 t68.5 28.5q56 0 89.5 -44t33.5 -122q0 -129 -66 -220.5t-182 -111.5z" />
<glyph unicode="&#x201e;" horiz-adv-x="796" d="M90 -223q56 10 97.5 60.5t41.5 99.5q0 19 -17.5 35.5t-38.5 27.5t-38.5 34.5t-17.5 55.5q0 41 29.5 69.5t68.5 28.5q56 0 89.5 -43.5t33.5 -121.5q0 -129 -66 -220.5t-182 -111.5v86zM438 -223q56 10 98 60.5t42 99.5q0 16 -11.5 29t-28 23.5t-33.5 22.5t-28.5 32 t-11.5 46q0 41 29.5 69.5t68.5 28.5q56 0 89.5 -43.5t33.5 -121.5q0 -129 -66 -220.5t-182 -111.5v86z" />
<glyph unicode="&#x2022;" horiz-adv-x="552" d="M84 653q0 78 58 135.5t137 57.5q78 0 134 -57.5t56 -135.5q0 -81 -56 -138.5t-134 -57.5q-80 0 -137.5 57.5t-57.5 138.5z" />
<glyph unicode="&#x2026;" horiz-adv-x="1304" d="M113 86q0 44 30.5 75.5t73.5 31.5t74 -31.5t31 -75.5q0 -43 -31 -73.5t-74 -30.5t-73.5 30.5t-30.5 73.5zM547 86q0 44 30.5 75.5t73.5 31.5t74 -31.5t31 -75.5q0 -43 -31 -73.5t-74 -30.5t-73.5 30.5t-30.5 73.5zM983 86q0 44 30.5 75.5t73.5 31.5t74 -31.5t31 -75.5 q0 -43 -31 -73.5t-74 -30.5t-73.5 30.5t-30.5 73.5z" />
<glyph unicode="&#x202f;" horiz-adv-x="398" />
<glyph unicode="&#x2039;" horiz-adv-x="790" d="M43 541l504 538h180l-491 -536l499 -543h-188z" />
<glyph unicode="&#x203a;" horiz-adv-x="790" d="M43 1079h188l504 -540l-504 -539h-180l492 537z" />
<glyph unicode="&#x205f;" horiz-adv-x="497" />
<glyph unicode="&#x20ac;" horiz-adv-x="1443" d="M23 520v117h178v164h-178v117h186q33 249 193 393.5t389 144.5q213 0 363.5 -133t191.5 -365h-160q-38 167 -144 258t-256 91q-159 0 -269.5 -102t-139.5 -287h506l-43 -117h-473v-164h415l-41 -117h-366q29 -187 140.5 -290t270.5 -103q150 0 256 90.5t144 257.5h160 q-41 -231 -193 -364.5t-362 -133.5q-229 0 -390 146t-194 397h-184z" />
<glyph unicode="&#x2122;" horiz-adv-x="1357" d="M55 1348v86h498v-86h-199v-486h-102v486h-197zM651 862v572h127l174 -433l170 433h127v-572h-98l4 420l-170 -420h-72l-168 420l3 -420h-97z" />
<glyph unicode="&#x25fc;" horiz-adv-x="1075" d="M0 0v1075h1075v-1075h-1075z" />
<glyph unicode="&#xfb01;" horiz-adv-x="1271" d="M68 940v139h221v226q0 101 60.5 162t166.5 61h457v-139h-434q-45 0 -70 -28t-25 -79v-203h652v-1079h-158v940h-494v-940h-155v940h-221z" />
<glyph unicode="&#xfb02;" horiz-adv-x="1273" d="M68 940v139h221v226q0 101 60.5 162t166.5 61h580v-1528h-158v1389h-399q-45 0 -70 -28t-25 -79v-203h281v-139h-281v-940h-155v940h-221z" />
</font>
</defs>
</svg>
