<svg width="57" height="16" viewBox="0 0 57 16" fill="none" xmlns="http://www.w3.org/2000/svg">
<path d="M49.2149 15.6992V9.43044C49.2149 8.79329 49.1855 8.11362 50.1692 7.52264C51.1525 6.93166 55.8927 4.25195 55.8927 4.25195C56.0717 4.5874 56.1653 4.96176 56.1653 5.34197V10.3843C56.1653 11.6235 55.8113 12.1755 55.2111 12.5649C54.6113 12.9544 51.0059 15.0775 50.3053 15.4259C49.6044 15.7748 49.2149 15.6992 49.2149 15.6992Z" fill="#4EFF75" fill-opacity="0.37"/>
<path d="M47.2694 0.772922C47.1954 0.816844 47.1417 0.88813 47.1199 0.971351C47.0981 1.05458 47.11 1.14305 47.1529 1.2176C47.1958 1.29216 47.2664 1.3468 47.3493 1.36972C47.4323 1.39262 47.5209 1.38196 47.596 1.34002L47.2694 0.772922ZM48.1938 0.618143L48.0302 0.334432L48.1938 0.618143ZM49.2819 0.327232V0V0.327232ZM50.3699 0.618143L50.2063 0.901529V0.901849L50.3699 0.618143ZM55.1436 3.36689L55.3068 3.08317L55.1436 3.36689ZM56.2362 5.25633H56.5635H56.2362ZM56.2362 10.7434H55.909H56.2362ZM55.1436 12.6328L54.9803 12.3494L55.1436 12.6328ZM50.3696 15.3819L50.5332 15.6652L50.3696 15.3819ZM49.2816 15.6728V15.3455V15.6728ZM48.1935 15.3819L48.3571 15.0981L48.1935 15.3819ZM43.4199 12.6332L43.2562 12.9168L43.4199 12.6332ZM42.3272 10.7436H42H42.3272ZM42.3272 5.25665H42H42.3272ZM43.4199 3.36721L43.2562 3.0835L43.4199 3.36721ZM46.4589 1.9948C46.4967 1.97368 46.53 1.94524 46.5567 1.91116C46.5835 1.87707 46.6032 1.838 46.6148 1.79623C46.6263 1.75445 46.6294 1.7108 46.624 1.66781C46.6185 1.62482 46.6045 1.58334 46.5829 1.54579C46.5613 1.50822 46.5324 1.47534 46.498 1.44903C46.4635 1.42273 46.4242 1.40353 46.3823 1.39254C46.3404 1.38156 46.2967 1.37901 46.2538 1.38505C46.2108 1.39108 46.1695 1.40559 46.1323 1.42772L46.4589 1.9948ZM47.596 1.34002L48.3571 0.901529L48.0306 0.334432L47.2694 0.772922L47.596 1.34002ZM48.3571 0.901529C48.6385 0.739737 48.9573 0.654548 49.2819 0.654464V0C48.8427 7.50179e-05 48.4112 0.115393 48.0306 0.334432L48.3571 0.901529ZM49.2819 0.654464C49.6065 0.654464 49.9252 0.739873 50.2066 0.901529L50.5332 0.334432C50.1526 0.115407 49.7211 9.03084e-05 49.2819 0V0.654464ZM50.2066 0.901849L54.9803 3.65027L55.3068 3.08317L50.5332 0.334432L50.2066 0.901849ZM54.9803 3.65027C55.2626 3.81279 55.4971 4.0469 55.66 4.32895L56.2268 4.00139C56.0061 3.61981 55.6889 3.30311 55.3068 3.08317L54.9803 3.65027ZM55.66 4.32895C55.8229 4.61069 55.909 4.93073 55.909 5.25633H56.5635C56.5635 4.81555 56.4473 4.38261 56.2268 4.00139L55.66 4.32895ZM55.909 5.25633V10.7434H56.5635V5.25633H55.909ZM55.909 10.7434C55.909 11.069 55.8233 11.389 55.66 11.671L56.2268 11.9986C56.4473 11.6171 56.5635 11.1841 56.5635 10.7434H55.909ZM55.66 11.671C55.4969 11.953 55.2625 12.1869 54.9803 12.3494L55.3068 12.9165C55.6888 12.6966 56.006 12.38 56.2268 11.9986L55.66 11.671ZM54.9803 12.3494L50.2063 15.0981L50.5329 15.6652L55.3068 12.9165L54.9803 12.3494ZM50.2063 15.0981C49.925 15.2602 49.6062 15.3455 49.2816 15.3455V16C49.7208 16 50.1523 15.8845 50.5329 15.6652L50.2063 15.0981ZM49.2816 15.3455C48.957 15.3455 48.6381 15.2602 48.3568 15.0981L48.0302 15.6652C48.4108 15.8845 48.8423 16 49.2816 16V15.3455ZM48.3568 15.0981L43.5831 12.3494L43.2566 12.9168L48.0302 15.6652L48.3568 15.0981ZM43.5831 12.3494C43.3009 12.187 43.0664 11.9531 42.9035 11.671L42.3367 11.9986C42.5572 12.3802 42.8744 12.6969 43.2562 12.9168L43.5831 12.3494ZM42.9035 11.671C42.7405 11.3892 42.6547 11.0692 42.6548 10.7436H42.0003C42.0003 11.1841 42.1162 11.6171 42.3367 11.9986L42.9035 11.671ZM42.6548 10.7436V5.25665H42.0003V10.7436H42.6548ZM42.6548 5.25665C42.6548 4.93106 42.7405 4.61102 42.9035 4.32927L42.3367 4.00172C42.1162 4.38318 42 4.81602 42 5.25665H42.6545H42.6548ZM42.9035 4.32927C43.0664 4.0473 43.3009 3.81331 43.5831 3.65092L43.2566 3.0835C42.8747 3.30346 42.5575 3.62017 42.337 4.00172L42.9032 4.32927H42.9035ZM43.5831 3.65092L46.4589 1.9948L46.1323 1.42772L43.2566 3.0835L43.5831 3.65092Z" fill="#46DE83"/>
<path d="M48.9512 15.4997C48.9512 15.5866 48.9857 15.6698 49.047 15.7311C49.1084 15.7925 49.1916 15.827 49.2784 15.827C49.3652 15.827 49.4484 15.7925 49.5098 15.7311C49.5712 15.6698 49.6056 15.5866 49.6056 15.4997H48.9512ZM49.6056 14.5632C49.6056 14.4764 49.5712 14.3932 49.5098 14.3318C49.4484 14.2705 49.3652 14.236 49.2784 14.236C49.1916 14.236 49.1084 14.2705 49.047 14.3318C48.9857 14.3932 48.9512 14.4764 48.9512 14.5632H49.6056ZM48.9512 13.3285C48.9512 13.4154 48.9857 13.4986 49.047 13.56C49.1084 13.6213 49.1916 13.6558 49.2784 13.6558C49.3652 13.6558 49.4484 13.6213 49.5098 13.56C49.5712 13.4986 49.6056 13.4154 49.6056 13.3285H48.9512ZM49.6056 11.7415C49.6056 11.6547 49.5712 11.5715 49.5098 11.5101C49.4484 11.4487 49.3652 11.4142 49.2784 11.4142C49.1916 11.4142 49.1084 11.4487 49.047 11.5101C48.9857 11.5715 48.9512 11.6547 48.9512 11.7415H49.6056ZM48.9512 10.0187C48.9512 10.1054 48.9857 10.1886 49.047 10.25C49.1084 10.3114 49.1916 10.3459 49.2784 10.3459C49.3652 10.3459 49.4484 10.3114 49.5098 10.25C49.5712 10.1886 49.6056 10.1054 49.6056 10.0187H48.9512ZM56.0561 4.53487C56.0939 4.51372 56.1273 4.48522 56.1541 4.45105C56.1809 4.41688 56.2006 4.37771 56.2121 4.33584C56.2236 4.29397 56.2267 4.25022 56.2211 4.20715C56.2155 4.16408 56.2015 4.12255 56.1797 4.08498C56.1579 4.04742 56.1289 4.01455 56.0943 3.98832C56.0596 3.96209 56.0201 3.94301 55.9781 3.93219C55.9361 3.92137 55.8922 3.91903 55.8493 3.92532C55.8063 3.93159 55.765 3.94637 55.7278 3.96877L56.0561 4.53487ZM49.6056 15.4997V14.5632H48.9512V15.4997H49.6056ZM48.9512 11.7415V13.3285H49.6056V11.7415H48.9512ZM49.6056 10.0187V9.02942H48.9512V10.0187H49.6056ZM49.6056 9.02942C49.6056 8.79969 49.6662 8.57389 49.7814 8.37494L49.2146 8.04738C49.042 8.34588 48.9511 8.6846 48.9512 9.02942H49.6056ZM49.7814 8.37494C49.8964 8.17585 50.0622 8.01061 50.2614 7.89587L49.9345 7.32878C49.6355 7.50086 49.3872 7.74873 49.2146 8.04738L49.7814 8.37494ZM50.2614 7.89587L56.0561 4.53487L55.7278 3.96877L49.9335 7.32943L50.2614 7.89587Z" fill="#46DE83"/>
<path d="M28.2149 15.6992V9.43044C28.2149 8.79329 28.1855 8.11362 29.1692 7.52264C30.1525 6.93166 34.8927 4.25195 34.8927 4.25195C35.0717 4.5874 35.1653 4.96176 35.1653 5.34197V10.3843C35.1653 11.6235 34.8113 12.1755 34.2111 12.5649C33.6113 12.9544 30.0059 15.0775 29.3053 15.4259C28.6044 15.7748 28.2149 15.6992 28.2149 15.6992Z" fill="#FFB800" fill-opacity="0.37"/>
<path d="M26.2694 0.772922C26.1954 0.816844 26.1417 0.88813 26.1199 0.971351C26.0981 1.05458 26.11 1.14305 26.1529 1.2176C26.1958 1.29216 26.2664 1.3468 26.3493 1.36972C26.4323 1.39262 26.5209 1.38196 26.596 1.34002L26.2694 0.772922ZM27.1938 0.618143L27.0302 0.334432L27.1938 0.618143ZM28.2819 0.327232V0V0.327232ZM29.3699 0.618143L29.2063 0.901529V0.901849L29.3699 0.618143ZM34.1436 3.36689L34.3068 3.08317L34.1436 3.36689ZM35.2362 5.25633H35.5635H35.2362ZM35.2362 10.7434H34.909H35.2362ZM34.1436 12.6328L33.9803 12.3494L34.1436 12.6328ZM29.3696 15.3819L29.5332 15.6652L29.3696 15.3819ZM28.2816 15.6728V15.3455V15.6728ZM27.1935 15.3819L27.3571 15.0981L27.1935 15.3819ZM22.4199 12.6332L22.2562 12.9168L22.4199 12.6332ZM21.3272 10.7436H21H21.3272ZM21.3272 5.25665H21H21.3272ZM22.4199 3.36721L22.2562 3.0835L22.4199 3.36721ZM25.4589 1.9948C25.4967 1.97368 25.53 1.94524 25.5567 1.91116C25.5835 1.87707 25.6032 1.838 25.6148 1.79623C25.6263 1.75445 25.6294 1.7108 25.624 1.66781C25.6185 1.62482 25.6045 1.58334 25.5829 1.54579C25.5613 1.50822 25.5324 1.47534 25.498 1.44903C25.4635 1.42273 25.4242 1.40353 25.3823 1.39254C25.3404 1.38156 25.2967 1.37901 25.2538 1.38505C25.2108 1.39108 25.1695 1.40559 25.1323 1.42772L25.4589 1.9948ZM26.596 1.34002L27.3571 0.901529L27.0306 0.334432L26.2694 0.772922L26.596 1.34002ZM27.3571 0.901529C27.6385 0.739737 27.9573 0.654548 28.2819 0.654464V0C27.8427 7.50179e-05 27.4112 0.115393 27.0306 0.334432L27.3571 0.901529ZM28.2819 0.654464C28.6065 0.654464 28.9252 0.739873 29.2066 0.901529L29.5332 0.334432C29.1526 0.115407 28.7211 9.03084e-05 28.2819 0V0.654464ZM29.2066 0.901849L33.9803 3.65027L34.3068 3.08317L29.5332 0.334432L29.2066 0.901849ZM33.9803 3.65027C34.2626 3.81279 34.4971 4.0469 34.66 4.32895L35.2268 4.00139C35.0061 3.61981 34.6889 3.30311 34.3068 3.08317L33.9803 3.65027ZM34.66 4.32895C34.8229 4.61069 34.909 4.93073 34.909 5.25633H35.5635C35.5635 4.81555 35.4473 4.38261 35.2268 4.00139L34.66 4.32895ZM34.909 5.25633V10.7434H35.5635V5.25633H34.909ZM34.909 10.7434C34.909 11.069 34.8233 11.389 34.66 11.671L35.2268 11.9986C35.4473 11.6171 35.5635 11.1841 35.5635 10.7434H34.909ZM34.66 11.671C34.4969 11.953 34.2625 12.1869 33.9803 12.3494L34.3068 12.9165C34.6888 12.6966 35.006 12.38 35.2268 11.9986L34.66 11.671ZM33.9803 12.3494L29.2063 15.0981L29.5329 15.6652L34.3068 12.9165L33.9803 12.3494ZM29.2063 15.0981C28.925 15.2602 28.6062 15.3455 28.2816 15.3455V16C28.7208 16 29.1523 15.8845 29.5329 15.6652L29.2063 15.0981ZM28.2816 15.3455C27.957 15.3455 27.6381 15.2602 27.3568 15.0981L27.0302 15.6652C27.4108 15.8845 27.8423 16 28.2816 16V15.3455ZM27.3568 15.0981L22.5831 12.3494L22.2566 12.9168L27.0302 15.6652L27.3568 15.0981ZM22.5831 12.3494C22.3009 12.187 22.0664 11.9531 21.9035 11.671L21.3367 11.9986C21.5572 12.3802 21.8744 12.6969 22.2562 12.9168L22.5831 12.3494ZM21.9035 11.671C21.7405 11.3892 21.6547 11.0692 21.6548 10.7436H21.0003C21.0003 11.1841 21.1162 11.6171 21.3367 11.9986L21.9035 11.671ZM21.6548 10.7436V5.25665H21.0003V10.7436H21.6548ZM21.6548 5.25665C21.6548 4.93106 21.7405 4.61102 21.9035 4.32927L21.3367 4.00172C21.1162 4.38318 21 4.81602 21 5.25665H21.6545H21.6548ZM21.9035 4.32927C22.0664 4.0473 22.3009 3.81331 22.5831 3.65092L22.2566 3.0835C21.8747 3.30346 21.5575 3.62017 21.337 4.00172L21.9032 4.32927H21.9035ZM22.5831 3.65092L25.4589 1.9948L25.1323 1.42772L22.2566 3.0835L22.5831 3.65092Z" fill="#FFAD0D"/>
<path d="M27.9512 15.4997C27.9512 15.5866 27.9857 15.6698 28.047 15.7311C28.1084 15.7925 28.1916 15.827 28.2784 15.827C28.3652 15.827 28.4484 15.7925 28.5098 15.7311C28.5712 15.6698 28.6056 15.5866 28.6056 15.4997H27.9512ZM28.6056 14.5632C28.6056 14.4764 28.5712 14.3932 28.5098 14.3318C28.4484 14.2705 28.3652 14.236 28.2784 14.236C28.1916 14.236 28.1084 14.2705 28.047 14.3318C27.9857 14.3932 27.9512 14.4764 27.9512 14.5632H28.6056ZM27.9512 13.3285C27.9512 13.4154 27.9857 13.4986 28.047 13.56C28.1084 13.6213 28.1916 13.6558 28.2784 13.6558C28.3652 13.6558 28.4484 13.6213 28.5098 13.56C28.5712 13.4986 28.6056 13.4154 28.6056 13.3285H27.9512ZM28.6056 11.7415C28.6056 11.6547 28.5712 11.5715 28.5098 11.5101C28.4484 11.4487 28.3652 11.4142 28.2784 11.4142C28.1916 11.4142 28.1084 11.4487 28.047 11.5101C27.9857 11.5715 27.9512 11.6547 27.9512 11.7415H28.6056ZM27.9512 10.0187C27.9512 10.1054 27.9857 10.1886 28.047 10.25C28.1084 10.3114 28.1916 10.3459 28.2784 10.3459C28.3652 10.3459 28.4484 10.3114 28.5098 10.25C28.5712 10.1886 28.6056 10.1054 28.6056 10.0187H27.9512ZM28.2784 9.02942H27.9512H28.2784ZM29.0978 7.61249L29.2614 7.89587L29.2621 7.89555L29.0978 7.61249ZM35.0561 4.53487C35.0939 4.51372 35.1273 4.48522 35.1541 4.45105C35.1809 4.41688 35.2006 4.37771 35.2121 4.33584C35.2236 4.29397 35.2267 4.25022 35.2211 4.20715C35.2155 4.16408 35.2015 4.12255 35.1797 4.08498C35.1579 4.04742 35.1289 4.01455 35.0943 3.98832C35.0596 3.96209 35.0201 3.94301 34.9781 3.93219C34.9361 3.92137 34.8922 3.91903 34.8493 3.92532C34.8063 3.93159 34.765 3.94637 34.7278 3.96877L35.0561 4.53487ZM28.6056 15.4997V14.5632H27.9512V15.4997H28.6056ZM27.9512 11.7415V13.3285H28.6056V11.7415H27.9512ZM28.6056 10.0187V9.02942H27.9512V10.0187H28.6056ZM28.6056 9.02942C28.6056 8.79969 28.6662 8.57389 28.7814 8.37494L28.2146 8.04738C28.042 8.34588 27.9511 8.6846 27.9512 9.02942H28.6056ZM28.7814 8.37494C28.8964 8.17585 29.0618 8.01061 29.2611 7.89587L28.9345 7.32878C28.6355 7.50086 28.3872 7.74873 28.2146 8.04738L28.7814 8.37494ZM29.2621 7.89555L35.0561 4.53487L34.7278 3.96877L28.9335 7.32943L29.2621 7.89555Z" fill="#FFAD0D"/>
<path d="M7.21494 15.6992V9.43044C7.21494 8.79329 7.18549 8.11362 8.16915 7.52264C9.15246 6.93166 13.8927 4.25195 13.8927 4.25195C14.0717 4.5874 14.1653 4.96176 14.1653 5.34197V10.3843C14.1653 11.6235 13.8113 12.1755 13.2111 12.5649C12.6113 12.9544 9.00588 15.0775 8.30528 15.4259C7.60435 15.7748 7.21494 15.6992 7.21494 15.6992Z" fill="#4E5FFF" fill-opacity="0.37"/>
<path d="M5.26941 0.772922C5.19543 0.816844 5.14173 0.88813 5.11993 0.971351C5.09812 1.05458 5.10996 1.14305 5.1529 1.2176C5.19583 1.29216 5.2664 1.3468 5.34933 1.36972C5.43226 1.39262 5.52087 1.38196 5.59599 1.34002L5.26941 0.772922ZM6.19384 0.618143L6.03023 0.334432L6.19384 0.618143ZM7.28188 0.327232V0V0.327232ZM8.36994 0.618143L8.20632 0.901529V0.901849L8.36994 0.618143ZM13.1436 3.36689L13.3068 3.08317L13.1436 3.36689ZM14.2362 5.25633H14.5635H14.2362ZM14.2362 10.7434H13.909H14.2362ZM13.1436 12.6328L12.9803 12.3494L13.1436 12.6328ZM8.36961 15.3819L8.53323 15.6652L8.36961 15.3819ZM7.28156 15.6728V15.3455V15.6728ZM6.19352 15.3819L6.35713 15.0981L6.19352 15.3819ZM1.41986 12.6332L1.25624 12.9168L1.41986 12.6332ZM0.327232 10.7436H0H0.327232ZM0.327232 5.25665H0H0.327232ZM1.41986 3.36721L1.25624 3.0835L1.41986 3.36721ZM4.45886 1.9948C4.4967 1.97368 4.52996 1.94524 4.55673 1.91116C4.58349 1.87707 4.60322 1.838 4.61476 1.79623C4.6263 1.75445 4.62942 1.7108 4.62396 1.66781C4.61849 1.62482 4.60454 1.58334 4.58292 1.54579C4.56129 1.50822 4.53241 1.47534 4.49797 1.44903C4.46353 1.42273 4.4242 1.40353 4.38228 1.39254C4.34036 1.38156 4.29667 1.37901 4.25375 1.38505C4.21084 1.39108 4.16955 1.40559 4.13228 1.42772L4.45886 1.9948ZM5.59599 1.34002L6.35713 0.901529L6.03055 0.334432L5.26941 0.772922L5.59599 1.34002ZM6.35713 0.901529C6.63848 0.739737 6.95733 0.654548 7.28188 0.654464V0C6.8427 7.50179e-05 6.41123 0.115393 6.03055 0.334432L6.35713 0.901529ZM7.28188 0.654464C7.60651 0.654464 7.92523 0.739873 8.20665 0.901529L8.53323 0.334432C8.15255 0.115407 7.72108 9.03084e-05 7.28188 0V0.654464ZM8.20665 0.901849L12.9803 3.65027L13.3068 3.08317L8.53323 0.334432L8.20665 0.901849ZM12.9803 3.65027C13.2626 3.81279 13.4971 4.0469 13.66 4.32895L14.2268 4.00139C14.0061 3.61981 13.6889 3.30311 13.3068 3.08317L12.9803 3.65027ZM13.66 4.32895C13.8229 4.61069 13.909 4.93073 13.909 5.25633H14.5635C14.5635 4.81555 14.4473 4.38261 14.2268 4.00139L13.66 4.32895ZM13.909 5.25633V10.7434H14.5635V5.25633H13.909ZM13.909 10.7434C13.909 11.069 13.8233 11.389 13.66 11.671L14.2268 11.9986C14.4473 11.6171 14.5635 11.1841 14.5635 10.7434H13.909ZM13.66 11.671C13.4969 11.953 13.2625 12.1869 12.9803 12.3494L13.3068 12.9165C13.6888 12.6966 14.006 12.38 14.2268 11.9986L13.66 11.671ZM12.9803 12.3494L8.20632 15.0981L8.5329 15.6652L13.3068 12.9165L12.9803 12.3494ZM8.20632 15.0981C7.92505 15.2602 7.60616 15.3455 7.28156 15.3455V16C7.7208 16 8.15233 15.8845 8.5329 15.6652L8.20632 15.0981ZM7.28156 15.3455C6.95696 15.3455 6.63807 15.2602 6.3568 15.0981L6.03023 15.6652C6.41081 15.8845 6.84233 16 7.28156 16V15.3455ZM6.3568 15.0981L1.58315 12.3494L1.25657 12.9168L6.03023 15.6652L6.3568 15.0981ZM1.58315 12.3494C1.30086 12.187 1.06642 11.9531 0.903484 11.671L0.336721 11.9986C0.55722 12.3802 0.874376 12.6969 1.25624 12.9168L1.58315 12.3494ZM0.903484 11.671C0.740512 11.3892 0.65473 11.0692 0.65479 10.7436H0.000327052C0.000327052 11.1841 0.116167 11.6171 0.336721 11.9986L0.903484 11.671ZM0.65479 10.7436V5.25665H0.000327052V10.7436H0.65479ZM0.65479 5.25665C0.65479 4.93106 0.740526 4.61102 0.903484 4.32927L0.336721 4.00172C0.116172 4.38318 3.28959e-05 4.81602 0 5.25665H0.654464H0.65479ZM0.903484 4.32927C1.06642 4.0473 1.30086 3.81331 1.58315 3.65092L1.25657 3.0835C0.874703 3.30346 0.557547 3.62017 0.337048 4.00172L0.903164 4.32927H0.903484ZM1.58315 3.65092L4.45886 1.9948L4.13228 1.42772L1.25657 3.0835L1.58315 3.65092Z" fill="#465EDE"/>
<path d="M6.95117 15.4997C6.95117 15.5866 6.98565 15.6698 7.04702 15.7311C7.10839 15.7925 7.19162 15.827 7.27841 15.827C7.36519 15.827 7.44843 15.7925 7.50979 15.7311C7.57116 15.6698 7.60563 15.5866 7.60563 15.4997H6.95117ZM7.60563 14.5632C7.60563 14.4764 7.57116 14.3932 7.50979 14.3318C7.44843 14.2705 7.36519 14.236 7.27841 14.236C7.19162 14.236 7.10839 14.2705 7.04702 14.3318C6.98565 14.3932 6.95117 14.4764 6.95117 14.5632H7.60563ZM6.95117 13.3285C6.95117 13.4154 6.98565 13.4986 7.04702 13.56C7.10839 13.6213 7.19162 13.6558 7.27841 13.6558C7.36519 13.6558 7.44843 13.6213 7.50979 13.56C7.57116 13.4986 7.60563 13.4154 7.60563 13.3285H6.95117ZM7.60563 11.7415C7.60563 11.6547 7.57116 11.5715 7.50979 11.5101C7.44843 11.4487 7.36519 11.4142 7.27841 11.4142C7.19162 11.4142 7.10839 11.4487 7.04702 11.5101C6.98565 11.5715 6.95117 11.6547 6.95117 11.7415H7.60563ZM6.95117 10.0187C6.95117 10.1054 6.98565 10.1886 7.04702 10.25C7.10839 10.3114 7.19162 10.3459 7.27841 10.3459C7.36519 10.3459 7.44843 10.3114 7.50979 10.25C7.57116 10.1886 7.60563 10.1054 7.60563 10.0187H6.95117ZM7.27841 9.02942H6.95117H7.27841ZM8.09779 7.61249L8.26141 7.89587L8.26207 7.89555L8.09779 7.61249ZM14.0561 4.53487C14.0939 4.51372 14.1273 4.48522 14.1541 4.45105C14.1809 4.41688 14.2006 4.37771 14.2121 4.33584C14.2236 4.29397 14.2267 4.25022 14.2211 4.20715C14.2155 4.16408 14.2015 4.12255 14.1797 4.08498C14.1579 4.04742 14.1289 4.01455 14.0943 3.98832C14.0596 3.96209 14.0201 3.94301 13.9781 3.93219C13.9361 3.92137 13.8922 3.91903 13.8493 3.92532C13.8063 3.93159 13.765 3.94637 13.7278 3.96877L14.0561 4.53487ZM7.60563 15.4997V14.5632H6.95117V15.4997H7.60563ZM6.95117 11.7415V13.3285H7.60563V11.7415H6.95117ZM7.60563 10.0187V9.02942H6.95117V10.0187H7.60563ZM7.60563 9.02942C7.60563 8.79969 7.66618 8.57389 7.78136 8.37494L7.21459 8.04738C7.042 8.34588 6.95114 8.6846 6.95117 9.02942H7.60563ZM7.78136 8.37494C7.89637 8.17585 8.06184 8.01061 8.26108 7.89587L7.93451 7.32878C7.63554 7.50086 7.38723 7.74873 7.21459 8.04738L7.78136 8.37494ZM8.26207 7.89555L14.0561 4.53487L13.7278 3.96877L7.93353 7.32943L8.26207 7.89555Z" fill="#465EDE"/>
</svg>
