<svg width="18" height="18" viewBox="0 0 18 18" fill="none" xmlns="http://www.w3.org/2000/svg">
<path d="M14.4375 5.4375V3.9375C14.4375 3.31618 13.9338 2.8125 13.3125 2.8125H4.6875C4.06618 2.8125 3.5625 3.31618 3.5625 3.9375V14.0625C3.5625 14.6838 4.06618 15.1875 4.6875 15.1875H7.3125M6.5625 6H7.6875M6.5625 9H7.6875M10.6875 15.5655V14.5233C10.6875 14.2934 10.7906 14.0724 10.9836 13.9474C12.2841 13.1048 13.9659 13.1048 15.2664 13.9474C15.4594 14.0724 15.5625 14.2934 15.5625 14.5233V15.5655M14.4375 10.125C14.4375 10.8499 13.8499 11.4375 13.125 11.4375C12.4001 11.4375 11.8125 10.8499 11.8125 10.125C11.8125 9.40013 12.4001 8.8125 13.125 8.8125C13.8499 8.8125 14.4375 9.40013 14.4375 10.125Z" stroke="black" stroke-width="1.125" stroke-linecap="round"/>
</svg>
